<svg id="그룹_45794" data-name="그룹 45794" xmlns="http://www.w3.org/2000/svg" width="106.984" height="22.192" viewBox="0 0 106.984 22.192">
  <g id="그룹_164" data-name="그룹 164">
    <path id="패스_8491" data-name="패스 8491" d="M2839.057,604.757a5.039,5.039,0,0,1,2.4-4.23,5.162,5.162,0,0,0-4.068-2.2c-1.711-.179-3.371,1.025-4.24,1.025-.889,0-2.234-1.007-3.679-.978a5.42,5.42,0,0,0-4.558,2.78c-1.97,3.412-.5,8.427,1.387,11.186.946,1.35,2.049,2.859,3.494,2.805,1.413-.059,1.94-.9,3.647-.9,1.691,0,2.187.9,3.66.866,1.517-.025,2.471-1.357,3.383-2.72a11.148,11.148,0,0,0,1.548-3.151,4.874,4.874,0,0,1-2.975-4.483" transform="translate(-2823.978 -592.956)" fill="#a0b1b9"/>
    <path id="패스_8492" data-name="패스 8492" d="M2978.307,511.761a4.954,4.954,0,0,0,1.135-3.557,5.049,5.049,0,0,0-3.267,1.691,4.722,4.722,0,0,0-1.166,3.425,4.175,4.175,0,0,0,3.3-1.56" transform="translate(-2966.012 -508.204)" fill="#a0b1b9"/>
  </g>
  <g id="그룹_165" data-name="그룹 165" transform="translate(28.27 3.567)">
    <path id="패스_8493" data-name="패스 8493" d="M3268.779,681.865h-2.241l-1.228-3.86h-4.267l-1.17,3.86h-2.183l4.231-13.136h2.609Zm-3.838-5.479-1.109-3.43q-.177-.524-.664-2.474h-.039q-.2.839-.625,2.474l-1.091,3.43Z" transform="translate(-3257.69 -668.533)" fill="#383838"/>
    <path id="패스_8494" data-name="패스 8494" d="M3456.767,724.843a5.388,5.388,0,0,1-1.306,3.82,3.819,3.819,0,0,1-2.9,1.246,2.907,2.907,0,0,1-2.69-1.345h-.038v4.989h-2.105V723.342q0-1.519-.078-3.118h1.85l.118,1.5h.04a3.742,3.742,0,0,1,5.992-.37,5.223,5.223,0,0,1,1.121,3.488m-2.144.078a3.911,3.911,0,0,0-.623-2.281,2.157,2.157,0,0,0-1.831-.936,2.184,2.184,0,0,0-1.413.516,2.4,2.4,0,0,0-.829,1.357,2.731,2.731,0,0,0-.1.641v1.58a2.528,2.528,0,0,0,.631,1.743,2.1,2.1,0,0,0,1.647.711,2.148,2.148,0,0,0,1.851-.915,4.028,4.028,0,0,0,.663-2.417" transform="translate(-3434.804 -716.364)" fill="#383838"/>
    <path id="패스_8495" data-name="패스 8495" d="M3617.9,724.843a5.381,5.381,0,0,1-1.306,3.82,3.817,3.817,0,0,1-2.9,1.246,2.9,2.9,0,0,1-2.688-1.345h-.039v4.989h-2.1V723.342q0-1.519-.077-3.118h1.85l.118,1.5h.04a3.743,3.743,0,0,1,5.992-.37,5.227,5.227,0,0,1,1.118,3.488m-2.142.078a3.9,3.9,0,0,0-.624-2.281,2.157,2.157,0,0,0-1.832-.936,2.187,2.187,0,0,0-1.413.516,2.4,2.4,0,0,0-.827,1.357,2.685,2.685,0,0,0-.1.641v1.58a2.52,2.52,0,0,0,.632,1.743,2.094,2.094,0,0,0,1.648.711,2.152,2.152,0,0,0,1.851-.915,4.051,4.051,0,0,0,.663-2.417" transform="translate(-3585.044 -716.364)" fill="#383838"/>
    <path id="패스_8496" data-name="패스 8496" d="M3811.42,675.475a3.5,3.5,0,0,1-1.168,2.729,5.165,5.165,0,0,1-3.576,1.149,6.277,6.277,0,0,1-3.406-.818l.488-1.754a5.774,5.774,0,0,0,3.043.837,2.878,2.878,0,0,0,1.854-.535,1.758,1.758,0,0,0,.661-1.436,1.834,1.834,0,0,0-.544-1.347,5.074,5.074,0,0,0-1.815-1.016q-3.449-1.29-3.448-3.768a3.33,3.33,0,0,1,1.208-2.654,4.771,4.771,0,0,1,3.216-1.037,6.381,6.381,0,0,1,2.981.624l-.524,1.715a5.193,5.193,0,0,0-2.516-.6,2.536,2.536,0,0,0-1.733.546,1.564,1.564,0,0,0-.525,1.189,1.6,1.6,0,0,0,.6,1.285,6.787,6.787,0,0,0,1.909,1.015,6.489,6.489,0,0,1,2.5,1.6,3.352,3.352,0,0,1,.8,2.28" transform="translate(-3766.381 -665.827)" fill="#383838"/>
    <path id="패스_8497" data-name="패스 8497" d="M3947.16,691.957h-2.32v4.6q0,1.754,1.229,1.754a3.811,3.811,0,0,0,.934-.1l.058,1.6a4.743,4.743,0,0,1-1.636.233,2.521,2.521,0,0,1-1.949-.758,3.729,3.729,0,0,1-.7-2.554v-4.775h-1.384v-1.58h1.384v-1.733l2.066-.625v2.358h2.32Z" transform="translate(-3895.163 -686.52)" fill="#383838"/>
    <path id="패스_8498" data-name="패스 8498" d="M4053.587,724.882a5.2,5.2,0,0,1-1.247,3.587,4.454,4.454,0,0,1-3.468,1.441,4.234,4.234,0,0,1-3.324-1.384,5.03,5.03,0,0,1-1.238-3.486,5.141,5.141,0,0,1,1.276-3.606,4.412,4.412,0,0,1,3.439-1.4,4.33,4.33,0,0,1,3.353,1.384,4.99,4.99,0,0,1,1.208,3.469m-2.184.068a4.266,4.266,0,0,0-.566-2.247,2.077,2.077,0,0,0-1.889-1.134,2.108,2.108,0,0,0-1.93,1.134,4.347,4.347,0,0,0-.564,2.288,4.259,4.259,0,0,0,.564,2.246,2.122,2.122,0,0,0,1.912,1.133,2.1,2.1,0,0,0,1.888-1.153,4.257,4.257,0,0,0,.585-2.267" transform="translate(-3991.125 -716.364)" fill="#383838"/>
    <path id="패스_8499" data-name="패스 8499" d="M4212.8,722.075a3.759,3.759,0,0,0-.661-.058,2,2,0,0,0-1.717.839,3.159,3.159,0,0,0-.524,1.87v4.97h-2.1l.018-6.489q0-1.638-.077-2.983h1.833l.077,1.814h.056a3.251,3.251,0,0,1,1.054-1.5,2.55,2.55,0,0,1,1.521-.508,3.448,3.448,0,0,1,.525.037Z" transform="translate(-4143.5 -716.364)" fill="#383838"/>
    <path id="패스_8500" data-name="패스 8500" d="M4305.784,724.247a5.159,5.159,0,0,1-.076.955H4299.4a2.749,2.749,0,0,0,.914,2.145,3.124,3.124,0,0,0,2.066.66,7,7,0,0,0,2.553-.447l.33,1.462a7.919,7.919,0,0,1-3.177.586,4.6,4.6,0,0,1-3.459-1.3,4.794,4.794,0,0,1-1.256-3.479,5.423,5.423,0,0,1,1.171-3.567,4.029,4.029,0,0,1,3.31-1.519,3.536,3.536,0,0,1,3.1,1.519,5.136,5.136,0,0,1,.833,2.982m-2.007-.546a2.847,2.847,0,0,0-.408-1.617,1.843,1.843,0,0,0-1.678-.877,2,2,0,0,0-1.675.858,3.111,3.111,0,0,0-.621,1.636Z" transform="translate(-4227.07 -716.1)" fill="#383838"/>
  </g>
</svg>
