<svg xmlns="http://www.w3.org/2000/svg" xmlns:xlink="http://www.w3.org/1999/xlink" width="102" height="102" viewBox="0 0 102 102">
  <defs>
    <clipPath id="clip-path">
      <rect id="사각형_15361" data-name="사각형 15361" width="51.545" height="57.929" fill="#344154"/>
    </clipPath>
  </defs>
  <g id="그룹_28651" data-name="그룹 28651" transform="translate(0.254)">
    <g id="그룹_28400" data-name="그룹 28400">
      <g id="그룹_28395" data-name="그룹 28395">
        <circle id="타원_41" data-name="타원 41" cx="51" cy="51" r="51" transform="translate(-0.254)" fill="#f8fbfc"/>
        <g id="그룹_28404" data-name="그룹 28404" transform="translate(24.884 25.089)">
          <g id="그룹_28403" data-name="그룹 28403" clip-path="url(#clip-path)">
            <path id="패스_13887" data-name="패스 13887" d="M25.773,0l.507.469a25.94,25.94,0,0,0,5.386,3.518,32.843,32.843,0,0,0,14.746,3.5,34.461,34.461,0,0,0,4.014-.238l.743-.087.088.743a59.369,59.369,0,0,1,.288,6.544c-.008,2.3-.121,4.613-.335,6.867a66.437,66.437,0,0,1-1.272,8.145,44.211,44.211,0,0,1-7.25,16.769,31.606,31.606,0,0,1-6.944,6.906,32.285,32.285,0,0,1-9.759,4.726l-.212.063-.212-.063A32.284,32.284,0,0,1,15.8,53.141a31.605,31.605,0,0,1-6.943-6.906,44.211,44.211,0,0,1-7.25-16.769A66.438,66.438,0,0,1,.336,21.321C.122,19.067.009,16.757,0,14.454A59.373,59.373,0,0,1,.289,7.91l.088-.743.743.087a34.461,34.461,0,0,0,4.014.238,32.842,32.842,0,0,0,14.745-3.5A25.947,25.947,0,0,0,25.265.471ZM46.412,8.989a34.289,34.289,0,0,1-8.835-1.153A34.116,34.116,0,0,1,30.938,5.3,29.32,29.32,0,0,1,25.772,2,29.325,29.325,0,0,1,20.607,5.3a34.119,34.119,0,0,1-6.639,2.537A34.285,34.285,0,0,1,5.134,8.989c-1.132,0-2.282-.056-3.429-.166-.086,1.019-.219,3.033-.208,5.666a70.255,70.255,0,0,0,1.58,14.69c3.236,14.467,10.871,23.614,22.7,27.19,11.835-3.579,19.473-12.739,22.7-27.228a70.3,70.3,0,0,0,1.572-14.692c.01-2.618-.122-4.614-.208-5.626C48.694,8.933,47.544,8.989,46.412,8.989Z" transform="translate(0 -0.001)" fill="#344154"/>
            <path id="패스_13888" data-name="패스 13888" d="M51.585,41.1a16.471,16.471,0,1,1-16.47-16.47A16.471,16.471,0,0,1,51.585,41.1" transform="translate(-9.342 -12.34)" fill="#0090e3"/>
          </g>
        </g>
      </g>
    </g>
    <path id="패스_13889" data-name="패스 13889" d="M1.8-16.992H-1.8l.288,11.9H1.512ZM-1.944-1.776A1.9,1.9,0,0,0,.024.192,1.992,1.992,0,0,0,1.992-1.776,1.983,1.983,0,0,0,.024-3.7,1.893,1.893,0,0,0-1.944-1.776Z" transform="translate(51 63)" fill="#fff"/>
  </g>
</svg>
