<svg xmlns="http://www.w3.org/2000/svg" width="123.845" height="22.774" viewBox="0 0 123.845 22.774">
  <g id="그룹_45789" data-name="그룹 45789" transform="translate(-1123.822 -475)">
    <g id="그룹_171" data-name="그룹 171" transform="translate(607.853 -43.237)">
      <path id="패스_8731" data-name="패스 8731" d="M516.379,523.035a1.772,1.772,0,0,0-.41,1.244v19.582a1.773,1.773,0,0,0,.41,1.244l.065.064,10.97-10.97v-.259l-10.97-10.97Z" transform="translate(0 -4.446)" fill="#01cfff"/>
      <path id="패스_8732" data-name="패스 8732" d="M707.873,650.823l-3.656-3.658v-.259l3.657-3.657.083.047,4.332,2.462a1.344,1.344,0,0,1,0,2.557l-4.332,2.462Z" transform="translate(-176.803 -117.412)" fill="#fdcf00"/>
      <path id="패스_8733" data-name="패스 8733" d="M537.485,709.275l-3.74-3.74L522.71,716.57a1.441,1.441,0,0,0,1.84.054l12.935-7.349" transform="translate(-6.331 -175.911)" fill="#ff3444"/>
      <path id="패스_8734" data-name="패스 8734" d="M537.485,525.884l-12.935-7.349a1.44,1.44,0,0,0-1.84.054l11.035,11.035Z" transform="translate(-6.331)" fill="#03fc06"/>
    </g>
    <path id="패스_8730" data-name="패스 8730" d="M998.13,664.862a4.6,4.6,0,1,0,4.616,4.6A4.533,4.533,0,0,0,998.13,664.862Zm0,7.386a2.794,2.794,0,1,1,2.6-2.787A2.66,2.66,0,0,1,998.13,672.248Zm-10.071-7.386a4.6,4.6,0,1,0,4.616,4.6A4.533,4.533,0,0,0,988.059,664.862Zm0,7.386a2.794,2.794,0,1,1,2.6-2.787A2.66,2.66,0,0,1,988.059,672.248Zm-11.979-5.975v1.951h4.669a4.071,4.071,0,0,1-1.063,2.456,4.779,4.779,0,0,1-3.606,1.428,5.192,5.192,0,0,1,0-10.382,4.975,4.975,0,0,1,3.519,1.394l1.376-1.376a6.806,6.806,0,0,0-4.9-1.969,7.143,7.143,0,1,0,0,14.284,6.529,6.529,0,0,0,4.982-2,6.446,6.446,0,0,0,1.69-4.564,6.341,6.341,0,0,0-.1-1.219Zm48.991,1.516a4.274,4.274,0,0,0-3.937-2.927,4.371,4.371,0,0,0-4.338,4.6,4.5,4.5,0,0,0,4.564,4.6,4.574,4.574,0,0,0,3.832-2.038l-1.568-1.045a2.627,2.627,0,0,1-2.265,1.272,2.34,2.34,0,0,1-2.23-1.393l6.149-2.543Zm-6.271,1.533a2.522,2.522,0,0,1,2.4-2.683,1.781,1.781,0,0,1,1.707.975Zm-5,4.459h2.021V660.263H1013.8Zm-3.31-7.891h-.07a3.187,3.187,0,0,0-2.421-1.028,4.6,4.6,0,0,0,0,9.2,3.135,3.135,0,0,0,2.421-1.045h.07v.662c0,1.76-.941,2.7-2.456,2.7a2.545,2.545,0,0,1-2.317-1.638l-1.759.732a4.382,4.382,0,0,0,4.076,2.718c2.369,0,4.373-1.394,4.373-4.791V665.14h-1.916Zm-2.317,6.358a2.8,2.8,0,0,1,0-5.574,2.809,2.809,0,0,1,0,5.574Zm26.363-11.985H1029.7v13.518h2.017v-5.121h2.817a4.2,4.2,0,1,0,0-8.4Zm.052,6.515h-2.869v-4.634h2.869a2.317,2.317,0,1,1,0,4.634Zm12.469-1.941a3.788,3.788,0,0,0-3.6,2.069l1.791.748a1.912,1.912,0,0,1,1.843-.991,1.943,1.943,0,0,1,2.122,1.739v.139a4.463,4.463,0,0,0-2.1-.522c-1.93,0-3.9,1.061-3.9,3.043a3.123,3.123,0,0,0,3.356,2.974,2.846,2.846,0,0,0,2.574-1.322h.069v1.043h1.948v-5.182C1051.161,666.176,1049.37,664.837,1047.057,664.837Zm-.243,7.408c-.661,0-1.583-.33-1.583-1.148,0-1.043,1.148-1.443,2.139-1.443a3.6,3.6,0,0,1,1.843.452A2.446,2.446,0,0,1,1046.814,672.245Zm11.443-7.113-2.313,5.861h-.07l-2.4-5.861H1051.3l3.6,8.191-2.052,4.556h2.1l5.548-12.747Zm-18.173,8.648h2.017V660.263h-2.017Z" transform="translate(187.167 -182.775)" fill="#383838"/>
  </g>
</svg>
