<svg xmlns="http://www.w3.org/2000/svg" xmlns:xlink="http://www.w3.org/1999/xlink" width="110.095" height="16.173" viewBox="0 0 110.095 16.173">
  <defs>
    <clipPath id="clip-path">
      <rect id="사각형_1" data-name="사각형 1" width="110.095" height="16.173" transform="translate(0 0)" fill="#fff"/>
    </clipPath>
  </defs>
  <g id="그룹_2" data-name="그룹 2" transform="translate(9.467 0)">
    <g id="그룹_1" data-name="그룹 1" transform="translate(-9.467 0)" clip-path="url(#clip-path)">
      <path id="패스_1" data-name="패스 1" d="M88.957,10.775c-.119,0-.144.023-.191.144l-1.128,2.735a3.694,3.694,0,0,0-.312,1.247c0,.36.192.576.839.576h.312c.264,0,.312.1.312.216,0,.168-.119.216-.337.216-.7,0-1.679-.072-2.351-.072-.216,0-1.343.072-2.448.072-.263,0-.383-.049-.383-.216,0-.12.072-.216.24-.216.192,0,.432-.024.624-.024.96-.144,1.319-.768,1.751-1.8L91.406.816c.24-.576.409-.816.623-.816.312,0,.409.192.624.648.5,1.128,4.032,9.478,5.375,12.574.817,1.848,1.417,2.112,1.8,2.184a5.138,5.138,0,0,0,.792.071c.192,0,.288.072.288.216,0,.168-.119.216-.911.216-.744,0-2.279,0-4.056-.049-.384-.023-.623-.023-.623-.168,0-.12.048-.192.263-.216a.321.321,0,0,0,.193-.456l-1.632-4.1a.2.2,0,0,0-.216-.144ZM93.47,9.646c.095,0,.119-.048.095-.12L91.573,4.344c-.023-.072-.047-.192-.1-.192-.072,0-.1.12-.119.192L89.318,9.5c-.048.1,0,.143.072.143Z" transform="translate(-59.706 0)" fill="#fff"/>
      <path id="패스_2" data-name="패스 2" d="M142.233,7.6c0-3.1,0-3.671-.025-4.319-.047-.7-.239-.913-.911-1.1a3.884,3.884,0,0,0-.84-.072c-.216,0-.36-.072-.36-.215s.169-.192.48-.192c1.1,0,2.448.048,3.048.048.647,0,2.159-.048,3.431-.048,2.638,0,6.19,0,8.493,2.327a7.143,7.143,0,0,1,1.992,5.183,7.91,7.91,0,0,1-2.3,5.688c-.96.96-3.192,2.4-7.079,2.4-.767,0-1.68-.072-2.519-.121-.839-.072-1.608-.119-2.135-.119-.24,0-.7.023-1.2.023-.5.025-1.032.049-1.464.049-.264,0-.407-.072-.407-.216,0-.1.071-.216.335-.216a3.121,3.121,0,0,0,.744-.072c.432-.1.551-.481.624-1.079.1-.865.1-2.472.1-4.344Zm2.831,2.256c0,2.159.024,3.72.048,4.127a3.725,3.725,0,0,0,.24,1.44c.263.383,1.1.816,2.759.816a6.659,6.659,0,0,0,4.608-1.392c1.368-1.127,1.8-2.952,1.8-5.063A6.642,6.642,0,0,0,152.551,4.7a8.514,8.514,0,0,0-5.9-1.944,4.469,4.469,0,0,0-1.3.144.359.359,0,0,0-.264.408c-.024.7-.024,2.375-.024,3.983Z" transform="translate(-100.451 -1.217)" fill="#fff"/>
      <path id="패스_3" data-name="패스 3" d="M174.386,14.453a7.549,7.549,0,0,1-2.639-6.023,7.588,7.588,0,0,1,2.471-5.591,9.514,9.514,0,0,1,6.694-2.16A21.6,21.6,0,0,1,183.984.9c.792.12,1.487.264,2.111.336.241.024.312.121.312.24,0,.168-.048.408-.1,1.128-.047.672-.047,1.8-.071,2.207-.025.289-.1.5-.288.5-.168,0-.216-.168-.216-.432a2.88,2.88,0,0,0-.815-1.9,5.975,5.975,0,0,0-4.08-1.2,5.69,5.69,0,0,0-3.983,1.151c-1.559,1.344-1.945,3.312-1.945,5.3a6.8,6.8,0,0,0,6.576,7.151c1.871,0,2.9-.144,3.743-1.08a3.318,3.318,0,0,0,.72-1.368c.047-.312.1-.408.264-.408.144,0,.239.191.239.359A18,18,0,0,1,186,15.6a.714.714,0,0,1-.553.6,12.386,12.386,0,0,1-3.814.456,10.846,10.846,0,0,1-7.246-2.208" transform="translate(-123.144 -0.487)" fill="#fff"/>
      <path id="패스_4" data-name="패스 4" d="M181.167,7.1a4.42,4.42,0,0,0-.443-.449,7.142,7.142,0,0,0-1.266-.9l-.069-.366,1.166-.924.748-.038a7.252,7.252,0,0,1,1.551.823l-.066.44L181.6,7.038Z" transform="translate(-128.624 -3.174)" fill="#fff"/>
      <path id="패스_5" data-name="패스 5" d="M228.547,8.67c0-3.48,2.448-7.991,8.857-7.991,5.326,0,8.637,2.951,8.637,7.631s-3.408,8.351-8.854,8.351c-6.144,0-8.64-4.367-8.64-7.991m14.351.384c0-4.511-2.712-7.3-6.119-7.3-2.351,0-5.112,1.248-5.112,6.287,0,4.2,2.4,7.511,6.383,7.511,1.489,0,4.848-.7,4.848-6.5" transform="translate(-163.871 -0.487)" fill="#fff"/>
      <path id="패스_6" data-name="패스 6" d="M296.181,7.6c0-3.1,0-3.671-.024-4.319-.049-.7-.241-.913-.913-1.1a3.862,3.862,0,0,0-.838-.072c-.217,0-.36-.072-.36-.215s.168-.192.479-.192c1.106,0,2.449.048,2.88.048.72,0,2.639-.048,3.288-.048a7.386,7.386,0,0,1,4.006.864,3.558,3.558,0,0,1,1.487,2.807c0,1.512-.863,2.855-2.927,4.511,1.873,2.3,3.36,4.151,4.63,5.423a3.965,3.965,0,0,0,2.257,1.344,1.979,1.979,0,0,0,.5.048.246.246,0,0,1,.264.216c0,.167-.144.216-.409.216h-2.014a4.59,4.59,0,0,1-2.305-.408,9.57,9.57,0,0,1-2.877-3c-.841-1.1-1.729-2.472-1.993-2.784a.486.486,0,0,0-.383-.144l-1.9-.048a.152.152,0,0,0-.168.168V11.2c0,1.9.024,3.479.12,4.344.072.6.169.983.816,1.079a8.01,8.01,0,0,0,1.032.072.245.245,0,0,1,.263.216c0,.144-.168.216-.432.216-1.223,0-2.975-.072-3.287-.072-.408,0-1.751.072-2.592.072-.264,0-.407-.072-.407-.216,0-.1.072-.216.336-.216a3.121,3.121,0,0,0,.744-.072c.432-.1.551-.481.624-1.079.1-.865.1-2.472.1-4.344Zm2.687,1.584c0,.216.048.288.193.36a5.8,5.8,0,0,0,1.607.192,2.129,2.129,0,0,0,1.489-.336,3.452,3.452,0,0,0,1.367-3.023c0-2.88-1.968-3.624-3.216-3.624a7.642,7.642,0,0,0-1.247.073c-.144.047-.193.119-.193.288Z" transform="translate(-210.833 -1.217)" fill="#fff"/>
      <path id="패스_7" data-name="패스 7" d="M348.7,7.6c0-3.1,0-3.671-.024-4.319-.047-.7-.239-.912-.911-1.1a3.892,3.892,0,0,0-.84-.072c-.217,0-.361-.072-.361-.216s.168-.192.48-.192c1.1,0,2.448.048,3.049.048.862,0,2.544-.048,3.5-.048,2.64,0,3.6.864,3.936,1.152A3.542,3.542,0,0,1,358.583,5.3a5,5,0,0,1-5.3,4.943,5.4,5.4,0,0,1-.623-.024.242.242,0,0,1-.265-.216c0-.167.241-.264.7-.264a3.193,3.193,0,0,0,2.832-3.311A3.8,3.8,0,0,0,354.672,3.4a3.176,3.176,0,0,0-2.112-.767,3.318,3.318,0,0,0-.912.1c-.119.049-.167.168-.167.384V11.2c0,1.871,0,3.479.1,4.367.07.576.19.96.814,1.056a8.192,8.192,0,0,0,1.079.072c.24,0,.337.12.337.216,0,.144-.168.216-.384.216-1.417,0-2.9-.072-3.457-.072-.478,0-1.823.072-2.663.072-.263,0-.406-.072-.406-.216,0-.1.071-.216.335-.216a3.111,3.111,0,0,0,.743-.072c.433-.1.552-.481.625-1.08.1-.864.1-2.472.1-4.344Z" transform="translate(-248.488 -1.218)" fill="#fff"/>
      <path id="패스_8" data-name="패스 8" d="M4.823,11.51c0,2.616,0,3.911.456,4.3.36.312,1.357.432,2.989.432,1.129,0,1.943-.024,2.472-.576a2.439,2.439,0,0,0,.527-1.224c.025-.191.073-.312.241-.312.144,0,.192.216.192.456a15.565,15.565,0,0,1-.312,2.351c-.144.456-.239.553-1.344.553-1.512,0-2.916-.024-3.972-.072-1.056-.024-1.944-.048-2.808-.048-.239,0-.7.023-1.2.023-.5.024-1.032.048-1.463.048-.265,0-.409-.071-.409-.216,0-.1.072-.216.336-.216a3.064,3.064,0,0,0,.743-.073c.431-.1.552-.479.624-1.078.1-.864.1-2.472.1-4.344v-3.6c0-3.1,0-3.671-.024-4.32-.048-.7-.24-.912-.912-1.1a2.782,2.782,0,0,0-.7-.072Q0,2.416,0,2.2c0-.144.144-.192.457-.192.983,0,2.327.048,2.9.048.5,0,2.232-.048,3.049-.048.311,0,.456.048.456.192s-.121.216-.385.216a4.61,4.61,0,0,0-.815.072c-.576.1-.744.384-.792,1.1-.048.649-.048,1.224-.048,4.32Z" transform="translate(0 -1.44)" fill="#fff"/>
      <path id="패스_9" data-name="패스 9" d="M44.987,7.239c0-3.1,0-3.672-.044-4.325-.045-.693-.225-1.02-.964-1.163A5.032,5.032,0,0,0,43.1,1.69c-.247,0-.381-.041-.381-.184s.157-.184.493-.184c.6,0,1.254.021,1.813.021.584.02,1.1.041,1.412.041.717,0,5.173,0,5.6-.021a9.6,9.6,0,0,0,.963-.122,2.281,2.281,0,0,1,.359-.082c.111,0,.134.082.134.184,0,.143-.112.447-.179,1.386-.023.2-.068,1.1-.113,1.346-.022.1-.067.224-.224.224s-.2-.1-.2-.287a2.017,2.017,0,0,0-.134-.734c-.157-.366-.381-.612-1.5-.735-.382-.041-2.735-.081-3.182-.081-.111,0-.155.061-.155.2v5.1c0,.141.022.224.155.224.494,0,3.07,0,3.584-.042a1.674,1.674,0,0,0,1.076-.305c.156-.164.246-.266.358-.266a.142.142,0,0,1,.157.164c0,.123-.089.449-.179,1.489-.022.408-.09,1.224-.09,1.366,0,.163,0,.388-.2.388-.157,0-.2-.081-.2-.184a4.793,4.793,0,0,0-.089-.734c-.112-.408-.426-.714-1.255-.8-.425-.04-2.643-.061-3.181-.061-.111,0-.133.082-.133.2v1.612c0,.693-.023,2.511,0,3.1.044,1.408.4,1.713,2.688,1.713a6.234,6.234,0,0,0,2.1-.243c.583-.245.851-.674,1.009-1.511.044-.224.089-.306.246-.306.179,0,.179.162.179.368a15.422,15.422,0,0,1-.291,2.324c-.157.53-.358.53-1.209.53-1.68,0-2.912-.04-3.876-.061-.964-.041-1.658-.061-2.331-.061-.245,0-.737,0-1.276.02-.515,0-1.1.041-1.546.041-.29,0-.447-.061-.447-.2,0-.1.089-.163.358-.163a4.02,4.02,0,0,0,.807-.082c.449-.082.56-.531.649-1.122.113-.857.113-2.469.113-4.346Z" transform="translate(-30.634 -0.831)" fill="#fff"/>
    </g>
  </g>
</svg>
