<svg id="icon_navigation_apps_24px" data-name="icon/navigation/apps_24px" xmlns="http://www.w3.org/2000/svg" width="24.94" height="24.94" viewBox="0 0 24.94 24.94">
  <rect id="Boundary" width="24.94" height="24.94" fill="none"/>
  <path id="_Color" data-name=" ↳Color" d="M18.96,18.96H14.22V14.22H18.96v4.739Zm-7.11,0H7.11V14.22h4.74v4.739Zm-7.11,0H0V14.22H4.74v4.739ZM18.96,11.85H14.22V7.11H18.96v4.738Zm-7.11,0H7.11V7.11h4.74v4.738Zm-7.11,0H0V7.11H4.74v4.738ZM18.96,4.74H14.22V0H18.96V4.738Zm-7.11,0H7.11V0h4.74V4.738Zm-7.11,0H0V0H4.74V4.738Z" transform="translate(2.99 2.99)"/>
</svg>
