<svg xmlns="http://www.w3.org/2000/svg" width="20" height="20" viewBox="0 0 20 20">
  <g id="그룹_28100" data-name="그룹 28100" transform="translate(0.254)">
    <circle id="타원_42" data-name="타원 42" cx="10" cy="10" r="10" transform="translate(-0.254)" fill="#0090e3"/>
    <path id="패스_13818" data-name="패스 13818" d="M1577.074,1614.541l-1.756-1.756a.626.626,0,0,0-.885,0l-.882.882a.669.669,0,0,1-.831.1,10.438,10.438,0,0,1-3.245-3.241.669.669,0,0,1,.1-.828l.885-.885a.626.626,0,0,0,0-.885l-1.756-1.756a.626.626,0,0,0-.885,0l-1.04,1.041a.845.845,0,0,0-.2.887,14.42,14.42,0,0,0,8.568,8.568.844.844,0,0,0,.887-.2l1.041-1.04A.626.626,0,0,0,1577.074,1614.541Z" transform="translate(-1561.527 -1600.985)" fill="#fff"/>
  </g>
</svg>
