<svg id="그룹_46459" data-name="그룹 46459" xmlns="http://www.w3.org/2000/svg" xmlns:xlink="http://www.w3.org/1999/xlink" width="20.962" height="22.42" viewBox="0 0 20.962 22.42">
  <defs>
    <clipPath id="clip-path">
      <rect id="사각형_16200" data-name="사각형 16200" width="20.962" height="22.42" fill="none"/>
    </clipPath>
  </defs>
  <g id="마스크_그룹_45832" data-name="마스크 그룹 45832" clip-path="url(#clip-path)">
    <path id="패스_68945" data-name="패스 68945" d="M17.266,1.458h-.177V.791a.792.792,0,0,0-1.585,0v.666H5.457V.791a.792.792,0,0,0-1.585,0v.666H3.7A3.7,3.7,0,0,0,0,5.154V18.724a3.7,3.7,0,0,0,3.7,3.7H17.266a3.7,3.7,0,0,0,3.7-3.7V5.154a3.7,3.7,0,0,0-3.7-3.7m0,19.387H3.7a2.123,2.123,0,0,1-2.12-2.12V5.154A2.123,2.123,0,0,1,3.7,3.033h.177V3.7a.792.792,0,1,0,1.585,0V3.033H15.5V3.7a.792.792,0,1,0,1.585,0V3.033h.177a2.123,2.123,0,0,1,2.12,2.12V18.724a2.123,2.123,0,0,1-2.12,2.12" fill="#a4a4a4"/>
    <path id="패스_68946" data-name="패스 68946" d="M77.03,124.064a1.03,1.03,0,1,0,1.03,1.03,1.031,1.031,0,0,0-1.03-1.03" transform="translate(-71.396 -116.548)" fill="#a4a4a4"/>
    <path id="패스_68947" data-name="패스 68947" d="M157.03,124.064a1.03,1.03,0,1,0,1.03,1.03,1.031,1.031,0,0,0-1.03-1.03" transform="translate(-146.549 -116.548)" fill="#a4a4a4"/>
    <path id="패스_68948" data-name="패스 68948" d="M237.03,124.064a1.03,1.03,0,1,0,1.03,1.03,1.031,1.031,0,0,0-1.03-1.03" transform="translate(-221.702 -116.548)" fill="#a4a4a4"/>
    <path id="패스_68949" data-name="패스 68949" d="M77.03,188.064a1.03,1.03,0,1,0,1.03,1.03,1.031,1.031,0,0,0-1.03-1.03" transform="translate(-71.396 -176.67)" fill="#a4a4a4"/>
    <path id="패스_68950" data-name="패스 68950" d="M157.03,188.064a1.03,1.03,0,1,0,1.03,1.03,1.031,1.031,0,0,0-1.03-1.03" transform="translate(-146.549 -176.67)" fill="#a4a4a4"/>
    <path id="패스_68951" data-name="패스 68951" d="M237.03,188.064a1.03,1.03,0,1,0,1.03,1.03,1.031,1.031,0,0,0-1.03-1.03" transform="translate(-221.702 -176.67)" fill="#a4a4a4"/>
    <path id="패스_68952" data-name="패스 68952" d="M77.03,252.064a1.03,1.03,0,1,0,1.03,1.03,1.031,1.031,0,0,0-1.03-1.03" transform="translate(-71.396 -236.793)" fill="#a4a4a4"/>
    <path id="패스_68953" data-name="패스 68953" d="M157.03,252.064a1.03,1.03,0,1,0,1.03,1.03,1.031,1.031,0,0,0-1.03-1.03" transform="translate(-146.549 -236.793)" fill="#a4a4a4"/>
    <path id="패스_68954" data-name="패스 68954" d="M237.03,252.064a1.03,1.03,0,1,0,1.03,1.03,1.031,1.031,0,0,0-1.03-1.03" transform="translate(-221.702 -236.793)" fill="#a4a4a4"/>
  </g>
</svg>
