<svg xmlns="http://www.w3.org/2000/svg" width="74.369" height="74.365" viewBox="0 0 74.369 74.365">
  <g id="그룹_46421" data-name="그룹 46421" transform="translate(-931.499 -664.499)">
    <path id="패스_13888" data-name="패스 13888" d="M91.013,60.811A36.185,36.185,0,1,1,54.829,24.628,36.183,36.183,0,0,1,91.013,60.811" transform="translate(913.855 640.871)" fill="none" stroke="#ededed" stroke-width="2"/>
    <path id="패스_13889" data-name="패스 13889" d="M6.283-16.992H-1.625L-.993,9.159H5.651ZM-1.942,16.435a4.182,4.182,0,0,0,4.324,4.323,4.376,4.376,0,0,0,4.324-4.323,4.356,4.356,0,0,0-4.324-4.218A4.158,4.158,0,0,0-1.942,16.435Z" transform="translate(966.981 700.116)" fill="#b8b8b8" stroke="#fff" stroke-width="2"/>
  </g>
</svg>
