<svg xmlns="http://www.w3.org/2000/svg" width="45.96" height="50.71" viewBox="0 0 45.96 50.71">
  <g id="그룹_45684" data-name="그룹 45684" transform="translate(0.65 0.65)">
    <g id="그룹_28067" data-name="그룹 28067" transform="translate(0 0)">
      <path id="사각형_15196" data-name="사각형 15196" d="M-.65-.65H33.705V46.076H-.65ZM32.405.65H.65V44.776H32.405Z" fill="#344154"/>
      <path id="패스_13793" data-name="패스 13793" d="M1061.539,915.544h-34.355V910.91h1.3v3.335h31.755V870.119H1056.9v-1.3h4.635Z" transform="translate(-1023.85 -865.484)" fill="#344154"/>
      <path id="사각형_15197" data-name="사각형 15197" d="M-.65-.65H12.028V12.028H-.65ZM10.728.65H.65V10.728H10.728Z" transform="translate(3.984 3.984)" fill="#344154"/>
      <path id="패스_13794" data-name="패스 13794" d="M0,0H6.669V6.669H0Z" transform="translate(13.008 6.339) rotate(90)" fill="#0090e3"/>
      <path id="선_37" data-name="선 37" d="M26.267.65H0V-.65H26.267Z" transform="translate(3.331 19.382)" fill="#344154"/>
      <path id="선_38" data-name="선 38" d="M26.267.65H0V-.65H26.267Z" transform="translate(3.331 23.557)" fill="#344154"/>
      <path id="선_39" data-name="선 39" d="M26.267.65H0V-.65H26.267Z" transform="translate(3.331 27.731)" fill="#344154"/>
      <path id="선_40" data-name="선 40" d="M10.646.65H0V-.65H10.646Z" transform="translate(18.952 3.984)" fill="#344154"/>
      <path id="선_41" data-name="선 41" d="M10.646.65H0V-.65H10.646Z" transform="translate(18.952 8.158)" fill="#344154"/>
      <path id="선_42" data-name="선 42" d="M26.267.65H0V-.65H26.267Z" transform="translate(3.331 31.905)" fill="#344154"/>
    </g>
    <g id="그룹_28068" data-name="그룹 28068" transform="translate(41.815 21.623)">
      <path id="사각형_15200" data-name="사각형 15200" d="M-.65-.65H3.5V17.789H-.65ZM2.2.65H.65V16.489H2.2Z" transform="translate(2.846 19.985) rotate(180)" fill="#344154"/>
      <path id="사각형_15201" data-name="사각형 15201" d="M1.423-.65A2.075,2.075,0,0,1,3.5,1.423v4.16H-.65V1.423A2.075,2.075,0,0,1,1.423-.65ZM2.2,4.283V1.423a.773.773,0,1,0-1.546,0v2.86Z" transform="translate(2.846 24.918) rotate(180)" fill="#344154"/>
      <path id="선_44" data-name="선 44" d="M.65,2.868H-.65V0H.65Z" transform="translate(1.423 24.918)" fill="#344154"/>
      <path id="사각형_15202" data-name="사각형 15202" d="M-.65-.65H3.5V1.423a2.073,2.073,0,0,1-4.146,0ZM2.2.65H.65v.773a.773.773,0,1,0,1.546,0Z" transform="translate(2.846 2.846) rotate(180)" fill="#344154"/>
    </g>
  </g>
</svg>
