<svg xmlns="http://www.w3.org/2000/svg" width="58.596" height="48.628" viewBox="0 0 58.596 48.628">
  <g id="그룹_45750" data-name="그룹 45750" transform="translate(0 0)">
    <g id="그룹_45669" data-name="그룹 45669" transform="translate(0 0)">
      <g id="그룹_45668" data-name="그룹 45668" transform="translate(38.383 0)">
        <path id="사각형_16030" data-name="사각형 16030" d="M0,0H5.888V27.889H0ZM4.381,1.507H1.507V26.382H4.381Z" transform="translate(8.279 32.16) rotate(-158.295)" fill="#344154"/>
        <path id="사각형_16031" data-name="사각형 16031" d="M2.166,0H3.722A2.169,2.169,0,0,1,5.888,2.166V9.1H0V2.166A2.169,2.169,0,0,1,2.166,0ZM4.381,7.593V2.166a.66.66,0,0,0-.659-.659H2.166a.66.66,0,0,0-.659.659V7.593Z" transform="matrix(-0.929, -0.37, 0.37, -0.929, 5.47, 39.215)" fill="#344154"/>
        <path id="선_338" data-name="선 338" d="M-.747,4.109a.751.751,0,0,1-.278-.054.753.753,0,0,1-.421-.979l1.633-4.1a.753.753,0,0,1,.979-.421.753.753,0,0,1,.421.979l-1.633,4.1A.754.754,0,0,1-.747,4.109Z" transform="translate(2.128 38.173)" fill="#344154"/>
        <path id="사각형_16032" data-name="사각형 16032" d="M0,0H5.888V3.722A2.169,2.169,0,0,1,3.722,5.888H2.166A2.169,2.169,0,0,1,0,3.722ZM4.381,1.507H1.507V3.722a.66.66,0,0,0,.659.659H3.722a.66.66,0,0,0,.659-.659Z" transform="matrix(-0.929, -0.37, 0.37, -0.929, 18.036, 7.648)" fill="#344154"/>
      </g>
      <path id="패스_68878" data-name="패스 68878" d="M1800,369.3h-53.366V334.9h44.391a.754.754,0,0,1,0,1.507h-42.884v31.384h50.352V345.6a.754.754,0,0,1,1.507,0Z" transform="translate(-1746.632 -320.667)" fill="#344154"/>
      <path id="선_339" data-name="선 339" d="M25.65.007H-.747A.753.753,0,0,1-1.5-.747.753.753,0,0,1-.747-1.5h26.4a.753.753,0,0,1,.753.753A.753.753,0,0,1,25.65.007Z" transform="translate(10.591 42.275)" fill="#344154"/>
      <path id="선_340" data-name="선 340" d="M13.448.007H-.747A.753.753,0,0,1-1.5-.747.753.753,0,0,1-.747-1.5H13.448a.753.753,0,0,1,.753.753A.753.753,0,0,1,13.448.007Z" transform="translate(22.792 27.696)" fill="#344154"/>
      <path id="선_341" data-name="선 341" d="M13.448.007H-.747A.753.753,0,0,1-1.5-.747.753.753,0,0,1-.747-1.5H13.448a.753.753,0,0,1,.753.753A.753.753,0,0,1,13.448.007Z" transform="translate(22.792 22.263)" fill="#344154"/>
      <path id="선_342" data-name="선 342" d="M13.448.007H-.747A.753.753,0,0,1-1.5-.747.753.753,0,0,1-.747-1.5H13.448a.753.753,0,0,1,.753.753A.753.753,0,0,1,13.448.007Z" transform="translate(22.792 33.129)" fill="#344154"/>
    </g>
    <g id="그룹_45670" data-name="그룹 45670" transform="translate(4.073 21.319)">
      <ellipse id="타원_73" data-name="타원 73" cx="7.55" cy="7.55" rx="7.55" ry="7.55" transform="translate(0 0)" fill="#0090e3"/>
      <g id="그룹_45670-2" data-name="그룹 45670" transform="translate(2.252 4.183)">
        <g id="그룹_28101" data-name="그룹 28101" transform="translate(0.814 0)">
          <path id="패스_13824" data-name="패스 13824" d="M1604.628,365.973h1.243l.714,3.965.4,2.443h.041c.166-.817.342-1.635.518-2.443l.983-3.965h1.056l.994,3.965c.176.8.342,1.615.517,2.443h.051c.125-.828.259-1.646.384-2.443l.724-3.965h1.149l-1.5,7.619h-1.48l-1.025-4.234c-.134-.6-.248-1.17-.352-1.75H1609c-.1.58-.228,1.15-.353,1.75l-1,4.234h-1.449Z" transform="translate(-1604.628 -365.973)" fill="#fff"/>
        </g>
        <rect id="사각형_15222" data-name="사각형 15222" width="10.408" height="0.987" transform="translate(0 2.336)" fill="#fff"/>
      </g>
    </g>
  </g>
</svg>
