<svg xmlns="http://www.w3.org/2000/svg" xmlns:xlink="http://www.w3.org/1999/xlink" width="43.219" height="55.935" viewBox="0 0 43.219 55.935">
  <defs>
    <clipPath id="clip-path">
      <rect id="사각형_1" data-name="사각형 1" width="40.893" height="6.007" transform="translate(0 0)" fill="none"/>
    </clipPath>
  </defs>
  <g id="그룹_45701" data-name="그룹 45701" transform="translate(0.249 0.25)">
    <g id="그룹_45661" data-name="그룹 45661" transform="translate(0.993 49.677)">
      <g id="그룹_1" data-name="그룹 1" transform="translate(0 0)" clip-path="url(#clip-path)">
        <path id="패스_1" data-name="패스 1" d="M85.383,4c-.044,0-.053.009-.071.054l-.419,1.016a1.371,1.371,0,0,0-.116.463c0,.134.071.214.312.214H85.2c.1,0,.116.036.116.08,0,.062-.044.08-.125.08-.258,0-.624-.027-.873-.027-.08,0-.5.027-.909.027-.1,0-.142-.018-.142-.08,0-.045.027-.08.089-.08s.161-.009.232-.009c.357-.054.49-.285.65-.669L86.292.3c.089-.214.152-.3.232-.3.116,0,.152.071.232.241.187.419,1.5,3.521,2,4.67.3.686.526.784.669.811a1.908,1.908,0,0,0,.294.026c.071,0,.107.027.107.08s-.044.08-.338.08c-.276,0-.846,0-1.506-.018-.143-.009-.231-.009-.231-.062s.018-.071.1-.08a.119.119,0,0,0,.072-.169l-.606-1.524A.075.075,0,0,0,87.228,4Zm1.676-.419c.035,0,.044-.018.035-.044l-.74-1.925c-.008-.027-.018-.071-.035-.071s-.036.045-.044.071L85.517,3.53c-.018.036,0,.053.027.053Z" transform="translate(-74.518 0)" fill="#0069a6"/>
        <path id="패스_2" data-name="패스 2" d="M140.89,3.889c0-1.15,0-1.363-.009-1.6-.017-.259-.089-.339-.338-.41a1.443,1.443,0,0,0-.312-.027c-.08,0-.134-.027-.134-.08s.063-.071.178-.071c.41,0,.909.018,1.132.018.24,0,.8-.018,1.274-.018a4.276,4.276,0,0,1,3.155.864,2.653,2.653,0,0,1,.74,1.925,2.938,2.938,0,0,1-.856,2.113,3.657,3.657,0,0,1-2.629.891c-.285,0-.624-.027-.936-.045s-.6-.044-.793-.044c-.089,0-.258.009-.446.009s-.383.018-.544.018c-.1,0-.151-.027-.151-.08,0-.035.026-.08.124-.08a1.159,1.159,0,0,0,.276-.027c.16-.036.2-.179.232-.4.036-.321.036-.918.036-1.613Zm1.052.838c0,.8.009,1.382.018,1.533a1.385,1.385,0,0,0,.089.535c.1.142.41.3,1.025.3a2.473,2.473,0,0,0,1.712-.517,2.313,2.313,0,0,0,.668-1.881,2.467,2.467,0,0,0-.731-1.89,3.162,3.162,0,0,0-2.192-.722,1.66,1.66,0,0,0-.481.054.133.133,0,0,0-.1.152c-.009.258-.009.882-.009,1.48Z" transform="translate(-125.371 -1.519)" fill="#0069a6"/>
        <path id="패스_3" data-name="패스 3" d="M172.727,5.8a2.8,2.8,0,0,1-.98-2.237,2.818,2.818,0,0,1,.918-2.077,3.534,3.534,0,0,1,2.486-.8,8.022,8.022,0,0,1,1.141.08c.294.045.552.1.784.125.089.009.116.045.116.089,0,.062-.018.152-.036.419-.018.249-.018.669-.026.82-.009.107-.036.187-.107.187s-.08-.062-.08-.16a1.07,1.07,0,0,0-.3-.7,2.219,2.219,0,0,0-1.515-.446,2.114,2.114,0,0,0-1.479.428,2.459,2.459,0,0,0-.722,1.97,2.527,2.527,0,0,0,2.443,2.656c.695,0,1.078-.054,1.39-.4a1.233,1.233,0,0,0,.267-.508c.018-.116.035-.151.1-.151s.089.071.089.133a6.687,6.687,0,0,1-.169,1.007.265.265,0,0,1-.205.223,4.6,4.6,0,0,1-1.417.169,4.029,4.029,0,0,1-2.692-.82" transform="translate(-153.694 -0.608)" fill="#8c9ca5"/>
        <path id="패스_4" data-name="패스 4" d="M180.049,5.421a1.646,1.646,0,0,0-.165-.167,2.652,2.652,0,0,0-.47-.334l-.026-.136.433-.343.278-.014a2.693,2.693,0,0,1,.576.306l-.024.163-.442.5Z" transform="translate(-160.533 -3.962)" fill="#0069a6"/>
        <path id="패스_5" data-name="패스 5" d="M228.547,3.647a3,3,0,0,1,3.29-2.968c1.978,0,3.208,1.1,3.208,2.834a3.062,3.062,0,0,1-3.289,3.1,2.957,2.957,0,0,1-3.209-2.968m5.33.143c0-1.676-1.007-2.71-2.273-2.71-.873,0-1.9.464-1.9,2.335,0,1.56.892,2.79,2.371,2.79.553,0,1.8-.259,1.8-2.415" transform="translate(-204.524 -0.608)" fill="#8c9ca5"/>
        <path id="패스_6" data-name="패스 6" d="M294.838,3.889c0-1.15,0-1.363-.009-1.6-.018-.259-.09-.339-.339-.41a1.436,1.436,0,0,0-.312-.027c-.08,0-.134-.027-.134-.08s.062-.071.178-.071c.411,0,.909.018,1.07.018.268,0,.98-.018,1.221-.018A2.743,2.743,0,0,1,298,2.018a1.321,1.321,0,0,1,.552,1.043c0,.562-.32,1.061-1.087,1.675.7.856,1.248,1.542,1.72,2.014a1.473,1.473,0,0,0,.838.5.735.735,0,0,0,.187.018.092.092,0,0,1,.1.08c0,.062-.053.08-.152.08h-.748a1.705,1.705,0,0,1-.856-.151,3.555,3.555,0,0,1-1.069-1.114c-.312-.41-.642-.918-.74-1.034a.181.181,0,0,0-.142-.053l-.7-.018a.056.056,0,0,0-.062.062v.107c0,.7.009,1.292.045,1.613.027.222.063.365.3.4a2.976,2.976,0,0,0,.383.027.091.091,0,0,1,.1.08c0,.054-.062.08-.161.08-.454,0-1.105-.027-1.221-.027-.151,0-.65.027-.963.027-.1,0-.151-.027-.151-.08,0-.035.027-.08.125-.08a1.16,1.16,0,0,0,.277-.027c.16-.036.2-.179.232-.4.036-.321.036-.918.036-1.613Zm1,.588c0,.08.018.107.071.134a2.154,2.154,0,0,0,.6.071.79.79,0,0,0,.553-.125,1.282,1.282,0,0,0,.508-1.123,1.191,1.191,0,0,0-1.194-1.346,2.84,2.84,0,0,0-.463.027c-.054.018-.071.044-.071.107Z" transform="translate(-263.137 -1.519)" fill="#8c9ca5"/>
        <path id="패스_7" data-name="패스 7" d="M347.354,3.89c0-1.15,0-1.364-.009-1.6-.018-.259-.089-.339-.339-.41a1.445,1.445,0,0,0-.312-.027c-.081,0-.134-.027-.134-.08s.062-.071.178-.071c.41,0,.909.018,1.132.018.32,0,.945-.018,1.3-.018a2,2,0,0,1,1.462.428,1.316,1.316,0,0,1,.392.909,1.856,1.856,0,0,1-1.97,1.836,2,2,0,0,1-.231-.009.09.09,0,0,1-.1-.08c0-.062.09-.1.259-.1a1.186,1.186,0,0,0,1.052-1.23,1.412,1.412,0,0,0-.464-1.123,1.18,1.18,0,0,0-.784-.285,1.232,1.232,0,0,0-.339.036c-.044.018-.062.062-.062.143v3c0,.7,0,1.292.036,1.622.026.214.071.357.3.392a3.042,3.042,0,0,0,.4.027c.089,0,.125.045.125.08,0,.054-.062.08-.143.08-.526,0-1.079-.027-1.284-.027-.178,0-.677.027-.989.027-.1,0-.151-.027-.151-.08,0-.035.026-.08.124-.08a1.155,1.155,0,0,0,.276-.027c.161-.036.205-.179.232-.4.036-.321.036-.918.036-1.613Z" transform="translate(-310.133 -1.52)" fill="#8c9ca5"/>
        <path id="패스_8" data-name="패스 8" d="M1.791,5.537c0,.972,0,1.453.169,1.6a2.134,2.134,0,0,0,1.11.161c.419,0,.722-.009.918-.214a.906.906,0,0,0,.2-.455c.009-.071.027-.116.089-.116s.071.08.071.169a5.781,5.781,0,0,1-.116.873c-.053.17-.089.205-.5.205-.562,0-1.083-.009-1.475-.027s-.722-.018-1.043-.018c-.089,0-.258.009-.445.009s-.383.018-.543.018c-.1,0-.152-.026-.152-.08,0-.036.027-.08.125-.08a1.138,1.138,0,0,0,.276-.027c.16-.035.2-.178.232-.4C.74,6.83.74,6.233.74,5.537V4.2c0-1.15,0-1.364-.009-1.6-.018-.258-.089-.339-.339-.41a1.033,1.033,0,0,0-.259-.027Q0,2.159,0,2.079c0-.053.054-.071.17-.071.365,0,.864.018,1.078.018.187,0,.829-.018,1.132-.018.116,0,.169.018.169.071s-.045.08-.143.08a1.712,1.712,0,0,0-.3.027c-.214.036-.276.143-.294.41-.018.241-.018.455-.018,1.6Z" transform="translate(0 -1.797)" fill="#0069a6"/>
        <path id="패스_9" data-name="패스 9" d="M43.564,3.417c0-1.152,0-1.364-.016-1.607s-.083-.379-.358-.432a1.869,1.869,0,0,0-.324-.023c-.092,0-.141-.015-.141-.068s.058-.068.183-.068c.224,0,.466.008.673.008s.408.015.525.015c.266,0,1.922,0,2.08-.008a3.566,3.566,0,0,0,.358-.045.848.848,0,0,1,.133-.03c.041,0,.05.03.05.068,0,.053-.042.166-.067.515-.009.076-.025.409-.042.5-.008.038-.025.083-.083.083s-.075-.038-.075-.107a.749.749,0,0,0-.05-.272c-.058-.136-.141-.227-.557-.273-.142-.015-1.016-.03-1.182-.03-.041,0-.058.023-.058.076V3.614c0,.053.008.083.058.083.183,0,1.14,0,1.331-.015a.622.622,0,0,0,.4-.113c.058-.061.091-.1.133-.1a.053.053,0,0,1,.058.061c0,.046-.033.167-.067.553-.008.151-.033.455-.033.507s0,.144-.075.144c-.058,0-.075-.03-.075-.068a1.781,1.781,0,0,0-.033-.273c-.042-.152-.158-.265-.466-.3-.158-.015-.982-.023-1.181-.023-.041,0-.05.03-.05.076v.6c0,.258-.009.933,0,1.152.016.523.149.636,1,.636a2.315,2.315,0,0,0,.782-.09c.216-.091.316-.25.375-.561.016-.083.033-.114.091-.114s.067.06.067.137a5.73,5.73,0,0,1-.108.863c-.058.2-.133.2-.449.2-.624,0-1.082-.015-1.439-.023s-.616-.022-.866-.022c-.091,0-.274,0-.474.007s-.408.015-.574.015c-.108,0-.166-.022-.166-.076,0-.038.033-.06.133-.06a1.493,1.493,0,0,0,.3-.03c.167-.03.208-.2.241-.417.042-.318.042-.917.042-1.614Z" transform="translate(-38.233 -1.037)" fill="#0069a6"/>
      </g>
    </g>
    <path id="패스_68878" data-name="패스 68878" d="M1600.084,1647.207h0a3.856,3.856,0,0,1-1.329-.236,56.358,56.358,0,0,1-33.491-33.49,3.9,3.9,0,0,1,.905-4.081l4.021-4.023a3.041,3.041,0,0,1,4.3,0l6.787,6.788a3.041,3.041,0,0,1,0,4.3l-3.419,3.42a1.974,1.974,0,0,0-.291,2.428,39.49,39.49,0,0,0,12.352,12.336,1.919,1.919,0,0,0,1.033.3,2,2,0,0,0,1.406-.584l3.411-3.411a3.041,3.041,0,0,1,4.3,0l6.787,6.787a3.046,3.046,0,0,1,0,4.3l-4.024,4.021a3.895,3.895,0,0,1-2.752,1.141Zm-27.742-41.478a1.787,1.787,0,0,0-1.272.527l-4.02,4.023a2.645,2.645,0,0,0-.617,2.774,55.011,55.011,0,0,0,32.751,32.751,2.6,2.6,0,0,0,.9.16,2.667,2.667,0,0,0,1.873-.776l4.024-4.021a1.8,1.8,0,0,0,0-2.543l-6.787-6.788a1.8,1.8,0,0,0-2.543,0l-3.41,3.41a3.258,3.258,0,0,1-2.285.948,3.161,3.161,0,0,1-1.7-.494,41.94,41.94,0,0,1-7.094-5.673,40.238,40.238,0,0,1-5.643-7.05,3.183,3.183,0,0,1-.462-2.067,3.254,3.254,0,0,1,.926-1.9l3.42-3.419a1.8,1.8,0,0,0,0-2.543l-6.788-6.788A1.789,1.789,0,0,0,1572.342,1605.728Z" transform="translate(-1565.029 -1604.484)" fill="#344154"/>
    <path id="패스_68878_-_윤곽선" data-name="패스 68878 - 윤곽선" d="M1600.084,1647.457a4.1,4.1,0,0,1-1.415-.251,56.609,56.609,0,0,1-33.64-33.639,4.149,4.149,0,0,1,.963-4.344l4.021-4.023a3.291,3.291,0,0,1,4.656,0l6.787,6.788a3.291,3.291,0,0,1,0,4.656l-3.419,3.42a1.722,1.722,0,0,0-.256,2.118,39.24,39.24,0,0,0,12.274,12.258,1.671,1.671,0,0,0,.9.261,1.75,1.75,0,0,0,1.229-.51l3.411-3.411a3.291,3.291,0,0,1,4.655,0l6.787,6.787a3.3,3.3,0,0,1,0,4.656l-4.024,4.021a4.144,4.144,0,0,1-2.929,1.214Zm-27.742-42.722a2.773,2.773,0,0,0-1.975.819l-4.021,4.023a3.646,3.646,0,0,0-.847,3.818,56.1,56.1,0,0,0,33.342,33.341,3.638,3.638,0,0,0,3.818-.847l4.024-4.021a2.8,2.8,0,0,0,0-3.949l-6.787-6.787a2.791,2.791,0,0,0-3.948,0l-3.411,3.41a2.253,2.253,0,0,1-1.582.657,2.17,2.17,0,0,1-1.167-.339,39.735,39.735,0,0,1-12.429-12.414,2.226,2.226,0,0,1,.326-2.738l3.419-3.42a2.791,2.791,0,0,0,0-3.948l-6.787-6.788A2.774,2.774,0,0,0,1572.342,1604.734Zm27.742,41.479a2.85,2.85,0,0,1-.986-.176,55.262,55.262,0,0,1-32.9-32.9,2.9,2.9,0,0,1,.675-3.037l4.02-4.023a2.049,2.049,0,0,1,2.9,0l6.788,6.788a2.048,2.048,0,0,1,0,2.9l-3.42,3.419a3,3,0,0,0-.854,1.756,2.932,2.932,0,0,0,.425,1.9,39.978,39.978,0,0,0,5.608,7.006,41.686,41.686,0,0,0,7.052,5.639,2.911,2.911,0,0,0,1.566.455,3,3,0,0,0,2.108-.875l3.41-3.41a2.05,2.05,0,0,1,2.9,0l6.787,6.788a2.051,2.051,0,0,1,0,2.9l-4.024,4.022A2.919,2.919,0,0,1,1600.084,1646.213Zm-27.742-40.235a1.539,1.539,0,0,0-1.1.454l-4.02,4.023a2.4,2.4,0,0,0-.559,2.511,54.763,54.763,0,0,0,32.6,32.6,2.35,2.35,0,0,0,.814.145,2.416,2.416,0,0,0,1.7-.7l4.024-4.022a1.55,1.55,0,0,0,0-2.19l-6.787-6.788a1.55,1.55,0,0,0-2.19,0l-3.411,3.41a3.508,3.508,0,0,1-2.462,1.021,3.411,3.411,0,0,1-1.834-.533,42.19,42.19,0,0,1-7.136-5.707,40.481,40.481,0,0,1-5.678-7.094,3.433,3.433,0,0,1-.5-2.23,3.5,3.5,0,0,1,1-2.05l3.42-3.419a1.548,1.548,0,0,0,0-2.189l-6.788-6.788A1.54,1.54,0,0,0,1572.342,1605.978Z" transform="translate(-1565.029 -1604.484)" fill="#344154"/>
  </g>
</svg>
