<svg xmlns="http://www.w3.org/2000/svg" width="59.183" height="48.125" viewBox="0 0 59.183 48.125">
  <g id="그룹_45934" data-name="그룹 45934" transform="translate(-1023.184 -1992.534)">
    <path id="패스_13879" data-name="패스 13879" d="M40.627,60.533h-23.7a.726.726,0,0,1,0-1.452h23.7a.726.726,0,1,1,0,1.452" transform="translate(1014.823 1962.05)" fill="#344154"/>
    <path id="패스_13880" data-name="패스 13880" d="M40.627,70.839h-23.7a.726.726,0,0,1,0-1.452h23.7a.726.726,0,1,1,0,1.452" transform="translate(1014.823 1956.729)" fill="#344154"/>
    <path id="패스_13882" data-name="패스 13882" d="M0,65.79V36.428a2.2,2.2,0,0,1,2.2-2.2H19.073a.726.726,0,1,1,0,1.452H2.2a.744.744,0,0,0-.744.743V62.28L4.8,58.931a2.21,2.21,0,0,1,1.554-.645H38.639a.745.745,0,0,0,.744-.743v-15.1a.726.726,0,1,1,1.452,0v15.1a2.2,2.2,0,0,1-2.2,2.2H6.35a.749.749,0,0,0-.527.218Z" transform="translate(1023.184 1974.869)" fill="#344154"/>
    <g id="그룹_28399" data-name="그룹 28399" transform="translate(1041.531 1992.534)">
      <path id="패스_13881" data-name="패스 13881" d="M78.741,31.557l-5.823-5.834a.747.747,0,0,0-.526-.218H40.1a2.2,2.2,0,0,1-2.2-2.2V2.2A2.2,2.2,0,0,1,40.1,0H76.545a2.2,2.2,0,0,1,2.2,2.2ZM40.1,1.452a.745.745,0,0,0-.744.743V23.309a.745.745,0,0,0,.744.743h32.29a2.211,2.211,0,0,1,1.554.645l3.344,3.349V2.2a.745.745,0,0,0-.744-.743Z" transform="translate(-37.906 0)" fill="#0090e3"/>
      <path id="패스_13884" data-name="패스 13884" d="M14.285,12.661v10.36l.537,1.522H48.757l1.432,1.612,3.85,3.94-.358-28.2L52.517.278,15.449.816,14.285,1.89Z" transform="translate(-13.636 0.092)" fill="#0090e3"/>
    </g>
    <g id="그룹_28398" data-name="그룹 28398" transform="translate(1049.365 1999.573)">
      <path id="패스_13876" data-name="패스 13876" d="M78.533,15.994h-23.7a.726.726,0,0,1,0-1.452h23.7a.726.726,0,0,1,0,1.452" transform="translate(-54.103 -14.542)" fill="#fff"/>
      <path id="패스_13877" data-name="패스 13877" d="M78.533,26.3h-23.7a.726.726,0,0,1,0-1.452h23.7a.726.726,0,0,1,0,1.452" transform="translate(-54.103 -19.86)" fill="#fff"/>
      <path id="패스_13878" data-name="패스 13878" d="M78.533,36.607h-23.7a.726.726,0,0,1,0-1.452h23.7a.726.726,0,0,1,0,1.452" transform="translate(-54.103 -25.178)" fill="#fff"/>
    </g>
  </g>
</svg>
