<svg xmlns="http://www.w3.org/2000/svg" width="32.559" height="56.693" viewBox="0 0 32.559 56.693">
  <g id="그룹_45933" data-name="그룹 45933" transform="translate(-1038.41 -1530.268)">
    <path id="패스_13809" data-name="패스 13809" d="M1956.316,1440.5v38.307h25.838V1440.5Z" transform="translate(-914.479 98.962)" fill="#e2f6ff"/>
    <g id="그룹_28095" data-name="그룹 28095" transform="translate(1046.736 1572.198)">
      <path id="사각형_15215" data-name="사각형 15215" d="M-.168-1H.942a.832.832,0,0,1,.832.832V.942a.832.832,0,0,1-.832.832H-.168A.832.832,0,0,1-1,.942V-.168A.832.832,0,0,1-.168-1Z" transform="translate(1 1)" fill="#344154"/>
      <path id="사각형_15216" data-name="사각형 15216" d="M-.168-1H.942a.832.832,0,0,1,.832.832V.942a.832.832,0,0,1-.832.832H-.168A.832.832,0,0,1-1,.942V-.168A.832.832,0,0,1-.168-1Z" transform="translate(7.569 1)" fill="#344154"/>
      <path id="사각형_15217" data-name="사각형 15217" d="M-.168-1H.942a.832.832,0,0,1,.832.832V.942a.832.832,0,0,1-.832.832H-.168A.832.832,0,0,1-1,.942V-.168A.832.832,0,0,1-.168-1Z" transform="translate(14.138 1)" fill="#344154"/>
    </g>
    <path id="사각형_15218" data-name="사각형 15218" d="M6.369-1H24.19a7.377,7.377,0,0,1,7.369,7.369V48.324a7.377,7.377,0,0,1-7.369,7.369H6.369A7.377,7.377,0,0,1-1,48.324V6.369A7.377,7.377,0,0,1,6.369-1ZM24.19,54.028a5.71,5.71,0,0,0,5.7-5.7V6.369a5.71,5.71,0,0,0-5.7-5.7H6.369a5.71,5.71,0,0,0-5.7,5.7V48.324a5.71,5.71,0,0,0,5.7,5.7Z" transform="translate(1039.41 1531.268)" fill="#344154"/>
    <path id="선_52" data-name="선 52" d="M30.726.665H-.168A.832.832,0,0,1-1-.168.832.832,0,0,1-.168-1H30.726a.832.832,0,0,1,.832.832A.832.832,0,0,1,30.726.665Z" transform="translate(1039.41 1537.102)" fill="#344154"/>
    <path id="선_53" data-name="선 53" d="M30.726.665H-.168A.832.832,0,0,1-1-.168.832.832,0,0,1-.168-1H30.726a.832.832,0,0,1,.832.832A.832.832,0,0,1,30.726.665Z" transform="translate(1039.41 1580.463)" fill="#344154"/>
    <path id="선_54" data-name="선 54" d="M7.937.665h-8.1A.832.832,0,0,1-1-.168.832.832,0,0,1-.168-1h8.1a.832.832,0,0,1,.832.832A.832.832,0,0,1,7.937.665Z" transform="translate(1050.807 1534.211)" fill="#344154"/>
    <g id="그룹_45767" data-name="그룹 45767" transform="translate(1044.976 1549.31)">
      <g id="그룹_28096" data-name="그룹 28096" transform="translate(1.531 0)">
        <path id="패스_13810" data-name="패스 13810" d="M1969.64,1462.325h2.336l1.342,7.456.759,4.593h.078c.312-1.537.643-3.075.974-4.593l1.85-7.456h1.986l1.868,7.456c.332,1.5.642,3.037.973,4.593h.1c.235-1.556.486-3.1.721-4.593l1.362-7.456h2.162l-2.823,14.328h-2.783l-1.927-7.962c-.254-1.129-.468-2.2-.663-3.291h-.1c-.195,1.091-.428,2.162-.662,3.291l-1.888,7.962h-2.724Z" transform="translate(-1969.64 -1462.325)" fill="#0090e3"/>
      </g>
      <rect id="사각형_15219" data-name="사각형 15219" width="19.571" height="1.856" transform="translate(0 4.392)" fill="#0090e3"/>
    </g>
  </g>
</svg>
