<svg xmlns="http://www.w3.org/2000/svg" xmlns:xlink="http://www.w3.org/1999/xlink" width="63.907" height="55.684" viewBox="0 0 63.907 55.684">
  <defs>
    <clipPath id="clip-path">
      <rect id="사각형_1" data-name="사각형 1" width="38.201" height="5.612" transform="translate(0 0)" fill="none"/>
    </clipPath>
  </defs>
  <g id="그룹_45936" data-name="그룹 45936" transform="translate(-668.697 -620.568)">
    <g id="그룹_45660" data-name="그룹 45660" transform="translate(668.696 620.568)">
      <rect id="사각형_16018" data-name="사각형 16018" width="46.989" height="5.874" transform="translate(0.745 0.744)" fill="#0090e3"/>
      <path id="패스_68878" data-name="패스 68878" d="M497.624,1652.434H453.468a.744.744,0,0,1-.744-.745v-38.766a.744.744,0,0,1,.744-.744h46.989a.744.744,0,0,1,.744.744v35.932a.744.744,0,1,1-1.489,0v-35.188h-45.5v37.277h43.412a.744.744,0,0,1,0,1.489Z" transform="translate(-452.724 -1612.18)" fill="#344154"/>
      <path id="선_338" data-name="선 338" d="M46.233-.011H-.756A.744.744,0,0,1-1.5-.756.744.744,0,0,1-.756-1.5H46.233a.744.744,0,0,1,.744.744A.744.744,0,0,1,46.233-.011Z" transform="translate(1.5 7.374)" fill="#344154"/>
      <path id="선_339" data-name="선 339" d="M14.159-.011H-.756A.744.744,0,0,1-1.5-.756.744.744,0,0,1-.756-1.5H14.159a.744.744,0,0,1,.744.744A.744.744,0,0,1,14.159-.011Z" transform="translate(5.905 22.936)" fill="#344154"/>
      <path id="선_340" data-name="선 340" d="M14.159-.011H-.756A.744.744,0,0,1-1.5-.756.744.744,0,0,1-.756-1.5H14.159a.744.744,0,0,1,.744.744A.744.744,0,0,1,14.159-.011Z" transform="translate(5.905 26.839)" fill="#344154"/>
      <path id="선_341" data-name="선 341" d="M14.159-.011H-.756A.744.744,0,0,1-1.5-.756.744.744,0,0,1-.756-1.5H14.159a.744.744,0,0,1,.744.744A.744.744,0,0,1,14.159-.011Z" transform="translate(5.905 30.743)" fill="#344154"/>
      <path id="패스_68879" data-name="패스 68879" d="M508.439,1700.223H470.453a.744.744,0,0,1-.744-.744v-8.427a.744.744,0,1,1,1.488,0v7.683h37.243a.744.744,0,1,1,0,1.488Z" transform="translate(-461.281 -1651.541)" fill="#344154"/>
      <path id="패스_68880" data-name="패스 68880" d="M556.6,1660.416a.745.745,0,0,1-.744-.744v-29.02h-7.683a.744.744,0,1,1,0-1.488H556.6a.744.744,0,0,1,.744.744v29.764A.745.745,0,0,1,556.6,1660.416Z" transform="translate(-500.435 -1620.737)" fill="#344154"/>
      <path id="패스_68881" data-name="패스 68881" d="M557.324,1703.3a.742.742,0,0,1-.526-.218l-7.194-7.194-4.31,4.31a.745.745,0,0,1-1.246-.334l-4.4-16.416a.745.745,0,0,1,.912-.912l16.415,4.4a.744.744,0,0,1,.334,1.245l-4.31,4.31,7.194,7.194a.744.744,0,0,1,0,1.052l-2.344,2.345A.742.742,0,0,1,557.324,1703.3Zm-7.72-9.209a.744.744,0,0,1,.526.219l7.194,7.194,1.292-1.292-7.194-7.194a.744.744,0,0,1,0-1.052l3.925-3.925-13.925-3.731,3.731,13.925,3.925-3.925A.744.744,0,0,1,549.6,1694.087Z" transform="translate(-496.505 -1647.612)" fill="#344154"/>
    </g>
    <g id="그룹_45661" data-name="그룹 45661" transform="translate(673.82 632.497)">
      <g id="그룹_1" data-name="그룹 1" transform="translate(0 0)" clip-path="url(#clip-path)">
        <path id="패스_1" data-name="패스 1" d="M85.244,3.739c-.041,0-.05.008-.066.05l-.391.949a1.282,1.282,0,0,0-.108.433c0,.125.066.2.291.2h.108c.092,0,.108.033.108.075,0,.058-.041.075-.117.075-.241,0-.583-.025-.816-.025-.075,0-.466.025-.849.025-.091,0-.133-.017-.133-.075,0-.042.025-.075.083-.075s.15-.008.216-.008c.333-.05.458-.267.608-.625L86.094.283c.083-.2.142-.283.216-.283.108,0,.142.067.216.225.175.391,1.4,3.289,1.865,4.363.283.641.492.733.625.758a1.783,1.783,0,0,0,.275.025c.067,0,.1.025.1.075s-.041.075-.316.075c-.258,0-.791,0-1.407-.017-.133-.008-.216-.008-.216-.058s.016-.066.091-.075a.111.111,0,0,0,.067-.158l-.566-1.424a.07.07,0,0,0-.075-.05Zm1.566-.391c.033,0,.041-.016.033-.042l-.691-1.8c-.008-.025-.016-.067-.033-.067s-.033.042-.041.067L85.369,3.3c-.017.033,0,.05.025.05Z" transform="translate(-75.094 0)" fill="#0069a6"/>
        <path id="패스_2" data-name="패스 2" d="M140.838,3.745c0-1.074,0-1.274-.009-1.5-.016-.242-.083-.317-.316-.383a1.348,1.348,0,0,0-.291-.025c-.075,0-.125-.025-.125-.075s.059-.067.167-.067c.383,0,.849.017,1.058.017.225,0,.749-.017,1.191-.017a3.994,3.994,0,0,1,2.947.808,2.479,2.479,0,0,1,.691,1.8,2.745,2.745,0,0,1-.8,1.973,3.417,3.417,0,0,1-2.456.833c-.266,0-.583-.025-.874-.042s-.558-.041-.741-.041c-.083,0-.241.008-.416.008s-.358.017-.508.017c-.092,0-.141-.025-.141-.075,0-.033.025-.075.116-.075a1.083,1.083,0,0,0,.258-.025c.15-.033.191-.167.217-.375.033-.3.033-.858.033-1.507Zm.982.783c0,.749.008,1.291.017,1.432a1.292,1.292,0,0,0,.083.5c.091.133.383.283.957.283a2.311,2.311,0,0,0,1.6-.483A2.161,2.161,0,0,0,145.1,4.5a2.3,2.3,0,0,0-.683-1.765,2.954,2.954,0,0,0-2.048-.674,1.551,1.551,0,0,0-.449.05.124.124,0,0,0-.092.142c-.008.241-.008.824-.008,1.382Z" transform="translate(-126.34 -1.53)" fill="#0069a6"/>
        <path id="패스_3" data-name="패스 3" d="M172.663,5.458a2.619,2.619,0,0,1-.916-2.09,2.633,2.633,0,0,1,.857-1.94,3.3,3.3,0,0,1,2.323-.749,7.493,7.493,0,0,1,1.066.075c.275.042.516.092.733.117.084.008.108.042.108.083,0,.058-.017.142-.033.391-.016.233-.016.625-.025.766-.009.1-.034.175-.1.175s-.075-.058-.075-.15a1,1,0,0,0-.283-.658,2.073,2.073,0,0,0-1.416-.416,1.975,1.975,0,0,0-1.382.4,2.3,2.3,0,0,0-.675,1.84,2.36,2.36,0,0,0,2.282,2.481c.649,0,1.007-.05,1.3-.375a1.151,1.151,0,0,0,.25-.475c.016-.108.033-.141.091-.141s.083.066.083.125a6.244,6.244,0,0,1-.158.941.248.248,0,0,1-.192.208,4.3,4.3,0,0,1-1.324.158,3.764,3.764,0,0,1-2.514-.766" transform="translate(-154.883 -0.612)" fill="#8c9ca5"/>
        <path id="패스_4" data-name="패스 4" d="M180.006,5.355a1.536,1.536,0,0,0-.154-.156,2.477,2.477,0,0,0-.439-.312l-.024-.127.4-.321.259-.013a2.516,2.516,0,0,1,.538.285l-.023.153-.413.468Z" transform="translate(-161.774 -3.992)" fill="#0069a6"/>
        <path id="패스_5" data-name="패스 5" d="M228.547,3.452A2.8,2.8,0,0,1,231.62.679c1.848,0,3,1.024,3,2.648a2.86,2.86,0,0,1-3.072,2.9,2.762,2.762,0,0,1-3-2.773m4.98.133A2.249,2.249,0,0,0,231.4,1.054c-.816,0-1.774.433-1.774,2.181a2.324,2.324,0,0,0,2.215,2.606c.517,0,1.682-.242,1.682-2.256" transform="translate(-206.105 -0.612)" fill="#8c9ca5"/>
        <path id="패스_6" data-name="패스 6" d="M294.786,3.745c0-1.074,0-1.274-.008-1.5-.017-.242-.084-.317-.317-.383a1.341,1.341,0,0,0-.291-.025c-.075,0-.125-.025-.125-.075s.058-.067.166-.067c.384,0,.85.017,1,.017.25,0,.916-.017,1.141-.017a2.563,2.563,0,0,1,1.39.3,1.235,1.235,0,0,1,.516.974c0,.525-.3.991-1.016,1.565.65.8,1.166,1.44,1.607,1.882a1.376,1.376,0,0,0,.783.466.687.687,0,0,0,.175.017.085.085,0,0,1,.092.075c0,.058-.05.075-.142.075h-.7a1.593,1.593,0,0,1-.8-.141,3.321,3.321,0,0,1-1-1.041c-.292-.383-.6-.858-.691-.966a.169.169,0,0,0-.133-.05l-.658-.017a.053.053,0,0,0-.058.058v.1c0,.658.008,1.207.042,1.507.025.208.059.341.283.375a2.778,2.778,0,0,0,.358.025.085.085,0,0,1,.091.075c0,.05-.058.075-.15.075-.424,0-1.032-.025-1.141-.025-.141,0-.607.025-.9.025-.092,0-.141-.025-.141-.075,0-.033.025-.075.117-.075a1.082,1.082,0,0,0,.258-.025c.15-.033.191-.167.217-.375.033-.3.033-.858.033-1.507Zm.932.55c0,.075.017.1.067.125a2.01,2.01,0,0,0,.557.067.738.738,0,0,0,.517-.117,1.2,1.2,0,0,0,.474-1.049,1.113,1.113,0,0,0-1.116-1.257,2.65,2.65,0,0,0-.433.025c-.05.016-.067.041-.067.1Z" transform="translate(-265.172 -1.53)" fill="#8c9ca5"/>
        <path id="패스_7" data-name="패스 7" d="M347.3,3.746c0-1.074,0-1.274-.008-1.5-.016-.242-.083-.317-.316-.383a1.352,1.352,0,0,0-.291-.025c-.075,0-.125-.025-.125-.075s.058-.067.166-.067c.383,0,.85.017,1.058.017.3,0,.882-.017,1.215-.017a1.868,1.868,0,0,1,1.366.4,1.229,1.229,0,0,1,.366.849,1.734,1.734,0,0,1-1.84,1.715,1.873,1.873,0,0,1-.216-.008.084.084,0,0,1-.092-.075c0-.058.084-.092.241-.092a1.108,1.108,0,0,0,.983-1.149,1.319,1.319,0,0,0-.433-1.049,1.1,1.1,0,0,0-.733-.266,1.151,1.151,0,0,0-.317.033c-.041.017-.058.058-.058.133V5c0,.649,0,1.207.034,1.515.024.2.066.333.282.367a2.842,2.842,0,0,0,.374.025c.083,0,.117.042.117.075,0,.05-.058.075-.133.075-.492,0-1.008-.025-1.2-.025-.166,0-.632.025-.924.025-.091,0-.141-.025-.141-.075,0-.033.025-.075.116-.075a1.08,1.08,0,0,0,.258-.025c.15-.033.192-.167.217-.375.033-.3.033-.858.033-1.507Z" transform="translate(-312.531 -1.531)" fill="#8c9ca5"/>
        <path id="패스_8" data-name="패스 8" d="M1.673,5.305c0,.908,0,1.357.158,1.49a1.993,1.993,0,0,0,1.037.15c.392,0,.674-.008.858-.2a.846.846,0,0,0,.183-.425c.009-.066.025-.108.084-.108s.067.075.067.158a5.4,5.4,0,0,1-.108.816c-.05.158-.083.192-.466.192-.525,0-1.012-.008-1.378-.025s-.674-.016-.974-.016c-.083,0-.241.008-.416.008s-.358.017-.508.017c-.092,0-.142-.025-.142-.075,0-.033.025-.075.117-.075a1.063,1.063,0,0,0,.258-.025c.15-.033.191-.166.217-.374.033-.3.033-.858.033-1.507V4.056c0-1.074,0-1.274-.008-1.5C.666,2.316.6,2.241.367,2.175a.965.965,0,0,0-.242-.025Q0,2.149,0,2.074c0-.05.05-.066.158-.066.341,0,.807.017,1.007.017.175,0,.775-.017,1.058-.017.108,0,.158.017.158.066s-.042.075-.134.075a1.6,1.6,0,0,0-.283.025c-.2.033-.258.133-.275.383-.017.225-.017.425-.017,1.5Z" transform="translate(0 -1.811)" fill="#0069a6"/>
        <path id="패스_9" data-name="패스 9" d="M43.509,3.269c0-1.076,0-1.274-.015-1.5s-.078-.354-.334-.4a1.747,1.747,0,0,0-.3-.021c-.086,0-.132-.014-.132-.064s.054-.064.171-.064c.21,0,.435.007.629.007s.381.014.49.014c.249,0,1.8,0,1.943-.007a3.332,3.332,0,0,0,.334-.042.792.792,0,0,1,.124-.028c.039,0,.047.028.047.064s-.039.155-.062.481c-.008.071-.023.382-.039.467-.008.036-.023.078-.078.078s-.07-.035-.07-.1a.7.7,0,0,0-.047-.255c-.055-.127-.132-.212-.521-.255-.133-.014-.949-.028-1.1-.028-.039,0-.054.021-.054.071v1.77c0,.049.008.078.054.078.171,0,1.065,0,1.244-.014a.581.581,0,0,0,.374-.106c.054-.057.085-.092.124-.092a.049.049,0,0,1,.055.057c0,.043-.031.156-.062.517-.007.141-.031.425-.031.474s0,.135-.07.135c-.055,0-.07-.028-.07-.064a1.665,1.665,0,0,0-.031-.255c-.039-.142-.148-.248-.435-.276-.147-.014-.917-.021-1.1-.021-.039,0-.046.028-.046.071v.559c0,.241-.008.871,0,1.076.015.489.139.595.933.595a2.163,2.163,0,0,0,.73-.084c.2-.085.3-.234.35-.524.015-.078.031-.106.085-.106s.062.056.062.128a5.35,5.35,0,0,1-.1.807c-.054.184-.124.184-.42.184-.583,0-1.011-.014-1.345-.021s-.575-.021-.809-.021c-.085,0-.256,0-.443.007s-.381.014-.536.014c-.1,0-.155-.021-.155-.071s.031-.056.124-.056a1.4,1.4,0,0,0,.28-.028c.156-.028.194-.184.225-.389.039-.3.039-.857.039-1.508Z" transform="translate(-38.529 -1.045)" fill="#0069a6"/>
      </g>
    </g>
  </g>
</svg>
