<svg xmlns="http://www.w3.org/2000/svg" xmlns:xlink="http://www.w3.org/1999/xlink" width="64.157" height="40.336" viewBox="0 0 64.157 40.336">
  <defs>
    <clipPath id="clip-path">
      <rect id="사각형_15482" data-name="사각형 15482" width="64.157" height="40.336" fill="none"/>
    </clipPath>
  </defs>
  <g id="그룹_45683" data-name="그룹 45683" transform="translate(0 0)">
    <g id="그룹_28568" data-name="그룹 28568" transform="translate(0 0)" clip-path="url(#clip-path)">
      <path id="패스_13946" data-name="패스 13946" d="M44.643,22.753a8.771,8.771,0,1,1-2.417,0H22.641V43.345H64.227V22.753Z" transform="translate(-11.355 -11.411)" fill="#e2f6ff"/>
      <path id="패스_13947" data-name="패스 13947" d="M64.242,68.935H27.667v-4.87h1.5v3.375H62.747V64.064h1.5Z" transform="translate(-13.876 -32.131)" fill="#344154"/>
      <path id="패스_13948" data-name="패스 13948" d="M64.261,75.927h-30.7V70.965h1.5v3.467H62.765V70.965h1.5Z" transform="translate(-16.831 -35.591)" fill="#344154"/>
      <path id="타원_55" data-name="타원 55" d="M-.309-1.5A1.193,1.193,0,0,1,.883-.309,1.193,1.193,0,0,1-.309.883,1.193,1.193,0,0,1-1.5-.309,1.193,1.193,0,0,1-.309-1.5Z" transform="translate(46.538 20.494)" fill="#344154"/>
      <path id="타원_56" data-name="타원 56" d="M-.309-1.5A1.193,1.193,0,0,1,.883-.309,1.193,1.193,0,0,1-.309.883,1.193,1.193,0,0,1-1.5-.309,1.193,1.193,0,0,1-.309-1.5Z" transform="translate(18.237 20.494)" fill="#344154"/>
      <path id="패스_13950" data-name="패스 13950" d="M58.9,22.683H52.872v-1.5H58.9a3.765,3.765,0,0,0,3.76-3.76V5.256A3.765,3.765,0,0,0,58.9,1.5H5.256A3.765,3.765,0,0,0,1.5,5.256V17.427a3.765,3.765,0,0,0,3.76,3.76h6.029v1.5H5.256A5.256,5.256,0,0,1,0,17.427V5.256A5.256,5.256,0,0,1,5.256,0H58.9a5.256,5.256,0,0,1,5.256,5.256V17.427A5.256,5.256,0,0,1,58.9,22.683Z" transform="translate(0 0)" fill="#344154"/>
      <path id="선_91" data-name="선 91" d="M48.285,0H-.752A.748.748,0,0,1-1.5-.752.748.748,0,0,1-.752-1.5H48.285a.748.748,0,0,1,.748.748A.748.748,0,0,1,48.285,0Z" transform="translate(8.312 12.094)" fill="#344154"/>
      <path id="패스_13951" data-name="패스 13951" d="M64.222,44.093H21.14V22.753h1.5V42.6H62.727V22.753h1.5Z" transform="translate(-10.602 -11.411)" fill="#344154"/>
      <g id="그룹_28102" data-name="그룹 28102" transform="translate(26.156 16.26)">
        <g id="그룹_28101" data-name="그룹 28101" transform="translate(0.927)">
          <path id="패스_13824" data-name="패스 13824" d="M1604.628,365.973h1.414l.813,4.513.46,2.781h.047c.189-.931.389-1.861.589-2.781l1.119-4.513h1.2l1.131,4.513c.2.907.389,1.838.589,2.781h.058c.142-.942.295-1.874.437-2.781l.824-4.513h1.309l-1.709,8.673h-1.685l-1.167-4.819c-.153-.683-.283-1.332-.4-1.992h-.058c-.119.66-.259,1.308-.4,1.992l-1.143,4.819h-1.649Z" transform="translate(-1604.628 -365.973)" fill="#0090e3"/>
        </g>
        <rect id="사각형_15222" data-name="사각형 15222" width="11.846" height="1.123" transform="translate(0 2.659)" fill="#0090e3"/>
      </g>
    </g>
  </g>
</svg>
