<svg xmlns="http://www.w3.org/2000/svg" xmlns:xlink="http://www.w3.org/1999/xlink" width="45.455" height="62.574" viewBox="0 0 45.455 62.574">
  <defs>
    <clipPath id="clip-path">
      <rect id="사각형_15475" data-name="사각형 15475" width="45.455" height="62.574" fill="none"/>
    </clipPath>
  </defs>
  <g id="그룹_45762" data-name="그룹 45762" transform="translate(0 0)">
    <path id="패스_13925" data-name="패스 13925" d="M62.43,19.913V7.339H49.856Z" transform="translate(-23.999 -3.532)" fill="#0090e3"/>
    <path id="패스_13926" data-name="패스 13926" d="M1.5,82.255V94.83H14.075Z" transform="translate(-0.722 -39.595)" fill="#0090e3"/>
    <g id="그룹_28552" data-name="그룹 28552" transform="translate(0 0)">
      <g id="그룹_28551" data-name="그룹 28551" clip-path="url(#clip-path)">
        <path id="패스_13927" data-name="패스 13927" d="M27.138,59.138H0V5.838H13.353V7.394H1.555V57.582H27.138Z" transform="translate(0 -2.81)" fill="#344154"/>
      </g>
    </g>
    <path id="패스_13928" data-name="패스 13928" d="M63.208,47.066H61.652V7.394h-11.8V5.838H63.208Z" transform="translate(-23.999 -2.81)" fill="#344154"/>
    <path id="선_89" data-name="선 89" d="M20.614.056H0V-1.5H20.614Z" transform="translate(9.298 19.715)" fill="#344154"/>
    <path id="선_90" data-name="선 90" d="M20.614.056H0V-1.5H20.614Z" transform="translate(9.298 26.838)" fill="#344154"/>
    <path id="선_91" data-name="선 91" d="M20.614.056H0V-1.5H20.614Z" transform="translate(9.298 33.962)" fill="#344154"/>
    <path id="선_92" data-name="선 92" d="M20.614.056H0V-1.5H20.614Z" transform="translate(9.298 41.085)" fill="#344154"/>
    <g id="그룹_28554" data-name="그룹 28554" transform="translate(0 0)">
      <g id="그룹_28553" data-name="그룹 28553" clip-path="url(#clip-path)">
        <path id="패스_13929" data-name="패스 13929" d="M25.874,0h10.8a1.63,1.63,0,0,1,1.628,1.628V8.062a1.879,1.879,0,0,1-3.742.243l-.018-.137a3.075,3.075,0,0,0-6.1,0l-.018.137a1.883,1.883,0,0,1-1.863,1.636h-.441a1.881,1.881,0,0,1-1.879-1.879V1.628A1.63,1.63,0,0,1,25.874,0ZM36.427,8.385a.323.323,0,0,0,.323-.323V1.628a.073.073,0,0,0-.073-.073h-10.8a.073.073,0,0,0-.073.073V8.062a.323.323,0,0,0,.323.323h.441a.323.323,0,0,0,.32-.28l.019-.139a4.631,4.631,0,0,1,9.184,0l.018.137A.324.324,0,0,0,36.427,8.385Z" transform="translate(-11.671 0)" fill="#344154"/>
        <path id="타원_51" data-name="타원 51" d="M8.261-1.5a9.758,9.758,0,0,1,6.9,16.662A9.761,9.761,0,1,1,4.461-.733,9.7,9.7,0,0,1,8.261-1.5Zm0,17.965a8.2,8.2,0,1,0-8.2-8.2A8.214,8.214,0,0,0,8.261,16.465Z" transform="translate(27.434 44.553)" fill="#0090e3"/>
        <path id="패스_13930" data-name="패스 13930" d="M64.249,102.462l-4.235-3.777a.778.778,0,0,1,1.036-1.161l3.023,2.7,4.719-5.772a.778.778,0,0,1,1.2.985Z" transform="translate(-28.764 -45.327)" fill="#0090e3"/>
      </g>
    </g>
  </g>
</svg>
