<svg xmlns="http://www.w3.org/2000/svg" width="56.802" height="56.801" viewBox="0 0 56.802 56.801">
  <g id="그룹_45935" data-name="그룹 45935" transform="translate(-1371.731 -1986.55)">
    <g id="그룹_28084" data-name="그룹 28084" transform="translate(1371.731 1986.55)">
      <path id="타원_40" data-name="타원 40" d="M21.213,0a21.219,21.219,0,0,1,8.257,40.759A21.219,21.219,0,0,1,12.956,1.667,21.081,21.081,0,0,1,21.213,0Zm0,40.5A19.291,19.291,0,1,0,1.922,21.213,19.313,19.313,0,0,0,21.213,40.5Z" transform="matrix(0.973, -0.23, 0.23, 0.973, 0, 9.748)" fill="#344154"/>
      <path id="패스_13797" data-name="패스 13797" d="M1793.726,753.971a.961.961,0,0,1,0-1.922,22.251,22.251,0,0,0,22.226-22.226.961.961,0,1,1,1.923,0,24.129,24.129,0,0,1-24.149,24.148Z" transform="translate(-1767.668 -703.764)" fill="#344154"/>
      <path id="패스_13798" data-name="패스 13798" d="M1836.908,776.642a3.63,3.63,0,0,1-2.574-1.064l-10.819-10.819a.961.961,0,0,1,1.359-1.359l10.818,10.819a1.719,1.719,0,0,0,2.431-2.43L1827.3,760.97a.961.961,0,0,1,1.36-1.359l10.819,10.819a3.639,3.639,0,0,1-2.575,6.213Z" transform="translate(-1783.745 -719.841)" fill="#344154"/>
    </g>
    <g id="그룹_45738" data-name="그룹 45738" transform="translate(1390.438 2005.669)">
      <path id="패스_13800" data-name="패스 13800" d="M1979.071,2005.459l-5.6-4.993a.961.961,0,0,1,1.28-1.435l4.1,3.657,7.216-8.824a.961.961,0,1,1,1.488,1.217Z" transform="translate(-1973.151 -1993.512)" fill="#0090e3"/>
    </g>
  </g>
</svg>
