<svg xmlns="http://www.w3.org/2000/svg" width="50.982" height="49.41" viewBox="0 0 50.982 49.41">
  <g id="그룹_45682" data-name="그룹 45682" transform="translate(0 0)">
    <path id="패스_68878" data-name="패스 68878" d="M1425.82,1474.371h-37.781a7.195,7.195,0,0,1-7.195-7.194v-41.506a.71.71,0,0,1,.711-.71h37.781a.71.71,0,0,1,.711.71v41.506a5.78,5.78,0,0,0,5.774,5.773.71.71,0,1,1,0,1.421Zm-43.555-47.989v40.8a5.78,5.78,0,0,0,5.774,5.773h33.487a7.213,7.213,0,0,1-2.9-5.773v-40.8Z" transform="translate(-1380.844 -1424.962)" fill="#344154"/>
    <path id="패스_68879" data-name="패스 68879" d="M1467.937,1496.575a.71.71,0,1,1,0-1.421,4.477,4.477,0,0,0,4.472-4.472v-22.125H1461.34a.71.71,0,1,1,0-1.421h11.779a.71.71,0,0,1,.711.71v22.836a5.893,5.893,0,0,1-5.893,5.893Z" transform="translate(-1422.848 -1447.165)" fill="#344154"/>
    <path id="사각형_16047" data-name="사각형 16047" d="M-.79-1.5H13.635a.71.71,0,0,1,.71.71V19.181a.71.71,0,0,1-.71.71H-.79a.71.71,0,0,1-.71-.71V-.79A.71.71,0,0,1-.79-1.5ZM12.924-.079h-13v18.55h13Z" transform="translate(1.5 1.5)" fill="#344154"/>
    <g id="그룹_45681" data-name="그룹 45681" transform="translate(18.944 8.614)">
      <path id="선_338" data-name="선 338" d="M13.527-.079H-.79A.71.71,0,0,1-1.5-.79.71.71,0,0,1-.79-1.5H13.527a.71.71,0,0,1,.71.71A.71.71,0,0,1,13.527-.079Z" transform="translate(1.5 12.857)" fill="#344154"/>
      <path id="선_339" data-name="선 339" d="M13.527-.079H-.79A.71.71,0,0,1-1.5-.79.71.71,0,0,1-.79-1.5H13.527a.71.71,0,0,1,.71.71A.71.71,0,0,1,13.527-.079Z" transform="translate(1.5 7.178)" fill="#344154"/>
      <path id="선_340" data-name="선 340" d="M13.527-.079H-.79A.71.71,0,0,1-1.5-.79.71.71,0,0,1-.79-1.5H13.527a.71.71,0,0,1,.71.71A.71.71,0,0,1,13.527-.079Z" transform="translate(1.5 1.5)" fill="#344154"/>
    </g>
    <path id="선_341" data-name="선 341" d="M27.94-.079H-.79A.71.71,0,0,1-1.5-.79.71.71,0,0,1-.79-1.5H27.94a.71.71,0,0,1,.71.71A.71.71,0,0,1,27.94-.079Z" transform="translate(6.026 27.149)" fill="#344154"/>
    <path id="선_342" data-name="선 342" d="M27.94-.079H-.79A.71.71,0,0,1-1.5-.79.71.71,0,0,1-.79-1.5H27.94a.71.71,0,0,1,.71.71A.71.71,0,0,1,27.94-.079Z" transform="translate(6.026 32.827)" fill="#344154"/>
    <rect id="사각형_16048" data-name="사각형 16048" width="14.288" height="8.742" transform="translate(12.293 3.552) rotate(90)" fill="#0090e3"/>
  </g>
</svg>
