<svg xmlns="http://www.w3.org/2000/svg" xmlns:xlink="http://www.w3.org/1999/xlink" width="32.559" height="56.693" viewBox="0 0 32.559 56.693">
  <defs>
    <clipPath id="clip-path">
      <rect id="사각형_1" data-name="사각형 1" width="22.408" height="3.292" transform="translate(0 0)" fill="none"/>
    </clipPath>
  </defs>
  <g id="그룹_45932" data-name="그룹 45932" transform="translate(-682.183 -1529.991)">
    <path id="패스_13809" data-name="패스 13809" d="M1956.316,1440.5v38.307h25.838V1440.5Z" transform="translate(-1270.707 98.686)" fill="#e2f6ff"/>
    <g id="그룹_28095" data-name="그룹 28095" transform="translate(690.507 1571.921)">
      <path id="사각형_15215" data-name="사각형 15215" d="M-.168-1H.942a.832.832,0,0,1,.832.832V.942a.832.832,0,0,1-.832.832H-.168A.832.832,0,0,1-1,.942V-.168A.832.832,0,0,1-.168-1Z" transform="translate(1 1)" fill="#344154"/>
      <path id="사각형_15216" data-name="사각형 15216" d="M-.168-1H.942a.832.832,0,0,1,.832.832V.942a.832.832,0,0,1-.832.832H-.168A.832.832,0,0,1-1,.942V-.168A.832.832,0,0,1-.168-1Z" transform="translate(7.569 1)" fill="#344154"/>
      <path id="사각형_15217" data-name="사각형 15217" d="M-.168-1H.942a.832.832,0,0,1,.832.832V.942a.832.832,0,0,1-.832.832H-.168A.832.832,0,0,1-1,.942V-.168A.832.832,0,0,1-.168-1Z" transform="translate(14.138 1)" fill="#344154"/>
    </g>
    <path id="사각형_15218" data-name="사각형 15218" d="M6.369-1H24.19a7.377,7.377,0,0,1,7.369,7.369V48.324a7.377,7.377,0,0,1-7.369,7.369H6.369A7.377,7.377,0,0,1-1,48.324V6.369A7.377,7.377,0,0,1,6.369-1ZM24.19,54.028a5.71,5.71,0,0,0,5.7-5.7V6.369a5.71,5.71,0,0,0-5.7-5.7H6.369a5.71,5.71,0,0,0-5.7,5.7V48.324a5.71,5.71,0,0,0,5.7,5.7Z" transform="translate(683.183 1530.991)" fill="#344154"/>
    <path id="선_52" data-name="선 52" d="M30.726.665H-.168A.832.832,0,0,1-1-.168.832.832,0,0,1-.168-1H30.726a.832.832,0,0,1,.832.832A.832.832,0,0,1,30.726.665Z" transform="translate(683.183 1536.824)" fill="#344154"/>
    <path id="선_53" data-name="선 53" d="M30.726.665H-.168A.832.832,0,0,1-1-.168.832.832,0,0,1-.168-1H30.726a.832.832,0,0,1,.832.832A.832.832,0,0,1,30.726.665Z" transform="translate(683.183 1580.187)" fill="#344154"/>
    <path id="선_54" data-name="선 54" d="M7.937.665h-8.1A.832.832,0,0,1-1-.168.832.832,0,0,1-.168-1h8.1a.832.832,0,0,1,.832.832A.832.832,0,0,1,7.937.665Z" transform="translate(694.576 1533.935)" fill="#344154"/>
    <g id="그룹_45718" data-name="그룹 45718" transform="translate(687.273 1554.131)">
      <g id="그룹_1" data-name="그룹 1" transform="translate(0 0)" clip-path="url(#clip-path)">
        <path id="패스_1" data-name="패스 1" d="M84.428,2.193c-.024,0-.029,0-.039.029l-.23.557a.751.751,0,0,0-.063.254c0,.073.039.117.171.117h.064c.054,0,.064.019.064.044s-.024.044-.069.044c-.142,0-.342-.015-.479-.015-.044,0-.273.015-.5.015-.053,0-.078-.01-.078-.044s.015-.044.049-.044.088,0,.127,0c.2-.029.269-.156.356-.366L84.927.166C84.976.049,85.01,0,85.054,0c.064,0,.083.039.127.132.1.23.821,1.929,1.094,2.559.166.376.288.43.366.445a1.046,1.046,0,0,0,.161.015c.039,0,.059.015.059.044s-.024.044-.185.044-.464,0-.825-.01c-.078,0-.127,0-.127-.034s.01-.039.054-.044a.065.065,0,0,0,.039-.093l-.332-.835a.041.041,0,0,0-.044-.029Zm.918-.23c.019,0,.024-.01.019-.024L84.961.884c0-.015-.01-.039-.019-.039s-.02.024-.024.039L84.5,1.934c-.01.019,0,.029.015.029Z" transform="translate(-78.475 0)" fill="#0069a6"/>
        <path id="패스_2" data-name="패스 2" d="M140.532,2.9c0-.63,0-.747-.005-.879s-.049-.186-.186-.225a.79.79,0,0,0-.171-.015c-.044,0-.073-.015-.073-.044s.034-.039.1-.039c.225,0,.5.01.62.01s.439-.01.7-.01a2.343,2.343,0,0,1,1.729.474,1.454,1.454,0,0,1,.406,1.055,1.61,1.61,0,0,1-.469,1.158,2,2,0,0,1-1.441.488c-.156,0-.342-.015-.513-.025s-.327-.024-.435-.024c-.049,0-.142,0-.244,0s-.21.01-.3.01c-.054,0-.083-.015-.083-.044s.014-.044.068-.044a.635.635,0,0,0,.151-.015c.088-.02.112-.1.127-.22.02-.176.02-.5.02-.884Zm.576.459c0,.439,0,.757.01.84a.759.759,0,0,0,.049.293c.054.078.225.166.562.166a1.355,1.355,0,0,0,.938-.283,1.267,1.267,0,0,0,.366-1.03,1.352,1.352,0,0,0-.4-1.035,1.733,1.733,0,0,0-1.2-.4.91.91,0,0,0-.264.029.073.073,0,0,0-.054.083c0,.142,0,.483,0,.811Z" transform="translate(-132.028 -1.599)" fill="#0069a6"/>
        <path id="패스_3" data-name="패스 3" d="M172.284,3.482a1.536,1.536,0,0,1-.537-1.226,1.544,1.544,0,0,1,.5-1.138,1.936,1.936,0,0,1,1.362-.44,4.395,4.395,0,0,1,.625.044c.161.024.3.054.43.068.049,0,.063.025.063.049s-.01.083-.02.23-.01.366-.014.449c0,.059-.02.1-.059.1s-.044-.034-.044-.088a.586.586,0,0,0-.166-.386A1.216,1.216,0,0,0,173.6.9a1.158,1.158,0,0,0-.811.234,1.347,1.347,0,0,0-.4,1.079,1.385,1.385,0,0,0,1.338,1.455c.381,0,.591-.029.762-.22a.675.675,0,0,0,.147-.278c.01-.063.019-.083.054-.083s.049.039.049.073a3.667,3.667,0,0,1-.093.552.145.145,0,0,1-.113.122,2.521,2.521,0,0,1-.776.093,2.208,2.208,0,0,1-1.475-.449" transform="translate(-161.855 -0.64)" fill="#8c9ca5"/>
        <path id="패스_4" data-name="패스 4" d="M179.751,4.972a.906.906,0,0,0-.09-.091A1.455,1.455,0,0,0,179.4,4.7l-.014-.074.237-.188.152-.008a1.476,1.476,0,0,1,.316.167l-.013.09-.242.274Z" transform="translate(-169.057 -4.172)" fill="#0069a6"/>
        <path id="패스_5" data-name="패스 5" d="M228.547,2.305a1.644,1.644,0,0,1,1.8-1.626,1.547,1.547,0,0,1,1.758,1.553,1.678,1.678,0,0,1-1.8,1.7,1.62,1.62,0,0,1-1.758-1.626m2.921.078A1.319,1.319,0,0,0,230.222.9c-.479,0-1.04.254-1.04,1.28a1.363,1.363,0,0,0,1.3,1.529c.3,0,.987-.142.987-1.323" transform="translate(-215.383 -0.64)" fill="#8c9ca5"/>
        <path id="패스_6" data-name="패스 6" d="M294.48,2.9c0-.63,0-.747,0-.879s-.049-.186-.186-.225a.785.785,0,0,0-.171-.015c-.044,0-.073-.015-.073-.044s.034-.039.1-.039c.225,0,.5.01.586.01.147,0,.537-.01.669-.01a1.5,1.5,0,0,1,.815.176.724.724,0,0,1,.3.571c0,.308-.176.581-.6.918.381.469.684.845.942,1.1a.807.807,0,0,0,.459.274.4.4,0,0,0,.1.01.05.05,0,0,1,.054.044c0,.034-.029.044-.083.044h-.41a.934.934,0,0,1-.469-.083,1.948,1.948,0,0,1-.586-.61c-.171-.225-.352-.5-.406-.567a.1.1,0,0,0-.078-.029l-.386-.01a.031.031,0,0,0-.034.034v.059c0,.386,0,.708.024.884.015.122.034.2.166.22a1.632,1.632,0,0,0,.21.015.05.05,0,0,1,.053.044c0,.029-.034.044-.088.044-.249,0-.605-.015-.669-.015-.083,0-.356.015-.528.015-.054,0-.083-.015-.083-.044s.015-.044.068-.044a.634.634,0,0,0,.151-.015c.088-.02.112-.1.127-.22.019-.176.019-.5.019-.884Zm.547.322c0,.044.01.059.039.073a1.179,1.179,0,0,0,.327.039.433.433,0,0,0,.3-.068.7.7,0,0,0,.278-.615.653.653,0,0,0-.654-.738,1.554,1.554,0,0,0-.254.015c-.029.01-.039.024-.039.059Z" transform="translate(-277.109 -1.599)" fill="#8c9ca5"/>
        <path id="패스_7" data-name="패스 7" d="M347,2.9c0-.63,0-.747,0-.879s-.049-.186-.185-.225a.794.794,0,0,0-.171-.015c-.044,0-.073-.015-.073-.044s.034-.039.1-.039c.225,0,.5.01.621.01.175,0,.518-.01.713-.01a1.1,1.1,0,0,1,.8.234.721.721,0,0,1,.215.5,1.017,1.017,0,0,1-1.079,1.006,1.1,1.1,0,0,1-.127,0,.049.049,0,0,1-.054-.044c0-.034.049-.054.142-.054a.65.65,0,0,0,.576-.674.774.774,0,0,0-.254-.615.647.647,0,0,0-.43-.156.675.675,0,0,0-.186.02c-.024.01-.034.034-.034.078V3.632c0,.381,0,.708.02.889.014.117.039.2.166.215a1.665,1.665,0,0,0,.22.015c.049,0,.069.024.069.044s-.034.044-.078.044c-.288,0-.591-.015-.7-.015s-.371.015-.542.015c-.054,0-.083-.015-.083-.044s.014-.044.068-.044a.632.632,0,0,0,.151-.015c.088-.02.112-.1.127-.22.02-.176.02-.5.02-.884Z" transform="translate(-326.6 -1.6)" fill="#8c9ca5"/>
        <path id="패스_8" data-name="패스 8" d="M.982,3.942c0,.532,0,.8.093.874a1.169,1.169,0,0,0,.608.088c.23,0,.4,0,.5-.117a.5.5,0,0,0,.107-.249c.005-.039.015-.063.049-.063s.039.044.039.093a3.168,3.168,0,0,1-.063.479c-.029.093-.049.113-.274.113-.308,0-.593,0-.808-.015s-.4-.01-.571-.01c-.049,0-.142,0-.244,0s-.21.01-.3.01c-.054,0-.083-.015-.083-.044S.054,5.06.108,5.06a.624.624,0,0,0,.151-.015c.088-.019.112-.1.127-.22.019-.176.019-.5.019-.884V3.21c0-.63,0-.747,0-.879S.352,2.145.215,2.106a.566.566,0,0,0-.142-.015Q0,2.091,0,2.047c0-.029.029-.039.093-.039.2,0,.474.01.591.01s.454-.01.62-.01c.063,0,.093.01.093.039s-.025.044-.078.044a.938.938,0,0,0-.166.015c-.117.02-.151.078-.161.225s-.01.249-.01.879Z" transform="translate(0 -1.892)" fill="#0069a6"/>
        <path id="패스_9" data-name="패스 9" d="M43.184,2.4c0-.631,0-.747-.009-.88s-.046-.208-.2-.237a1.024,1.024,0,0,0-.178-.012c-.05,0-.077-.008-.077-.037s.032-.037.1-.037c.123,0,.255,0,.369,0s.224.008.287.008c.146,0,1.053,0,1.14,0a1.954,1.954,0,0,0,.2-.025.465.465,0,0,1,.073-.017c.023,0,.027.017.027.037s-.023.091-.036.282c0,.041-.014.224-.023.274,0,.021-.014.046-.046.046s-.041-.021-.041-.058a.411.411,0,0,0-.027-.149c-.032-.075-.078-.125-.305-.15-.078-.008-.557-.017-.648-.017-.023,0-.032.012-.032.042V2.5c0,.029,0,.046.032.046.1,0,.625,0,.729-.008a.341.341,0,0,0,.219-.062c.032-.033.05-.054.073-.054a.029.029,0,0,1,.032.033c0,.025-.018.091-.037.3,0,.083-.018.249-.018.278s0,.079-.041.079-.041-.016-.041-.037a.973.973,0,0,0-.018-.149c-.023-.083-.087-.145-.255-.162-.086-.008-.538-.012-.647-.012-.023,0-.027.017-.027.042v.328c0,.141,0,.511,0,.631.009.287.082.349.547.349a1.269,1.269,0,0,0,.428-.05c.119-.05.173-.137.205-.308.009-.046.018-.062.05-.062s.037.033.037.075a3.138,3.138,0,0,1-.059.473c-.032.108-.073.108-.246.108-.342,0-.593-.008-.789-.012s-.338-.012-.474-.012c-.05,0-.15,0-.26,0s-.223.008-.315.008c-.059,0-.091-.012-.091-.042s.018-.033.073-.033a.818.818,0,0,0,.164-.017c.091-.017.114-.108.132-.228.023-.174.023-.5.023-.884Z" transform="translate(-40.263 -1.092)" fill="#0069a6"/>
      </g>
    </g>
  </g>
</svg>
